<?xml version="1.0" encoding="utf-8"?>
<!-- Generator: Adobe Illustrator 21.0.0, SVG Export Plug-In . SVG Version: 6.00 Build 0)  -->
<svg version="1.1" id="Camada_1" xmlns="http://www.w3.org/2000/svg" xmlns:xlink="http://www.w3.org/1999/xlink" x="0px" y="0px"
	 viewBox="0 0 100 100" style="enable-background:new 0 0 100 100;" xml:space="preserve">
<style type="text/css">
	.st0{fill:none;stroke:#00FFFF;stroke-miterlimit:10;}
</style>
<line class="st0" x1="0" y1="9.9" x2="100" y2="9.9"/>
<line class="st0" x1="0" y1="20" x2="100" y2="20"/>
<line class="st0" x1="0" y1="30" x2="100" y2="30"/>
<line class="st0" x1="0" y1="40" x2="100" y2="40"/>
<line class="st0" x1="0" y1="50" x2="100" y2="50"/>
<line class="st0" x1="0" y1="60" x2="100" y2="60"/>
<line class="st0" x1="0" y1="70" x2="100" y2="70"/>
<line class="st0" x1="0" y1="80" x2="100" y2="80"/>
<line class="st0" x1="0" y1="90" x2="100" y2="90"/>
<line class="st0" x1="10" y1="100" x2="10" y2="0"/>
<line class="st0" x1="20" y1="100" x2="20" y2="0"/>
<line class="st0" x1="30" y1="100" x2="30" y2="0"/>
<line class="st0" x1="40" y1="100" x2="40" y2="0"/>
<line class="st0" x1="50" y1="100" x2="50" y2="0"/>
<line class="st0" x1="60" y1="100" x2="60" y2="0"/>
<line class="st0" x1="70.1" y1="99.9" x2="70.1" y2="-0.1"/>
<line class="st0" x1="80.1" y1="99.9" x2="80.1" y2="-0.1"/>
<line class="st0" x1="90.1" y1="99.9" x2="90.1" y2="-0.1"/>
<rect class="st0" width="100" height="100"/>
</svg>
