<svg xmlns="http://www.w3.org/2000/svg" xmlns:xlink="http://www.w3.org/1999/xlink" viewBox="0 0 400 400"><defs><style>.a,.f,.i{fill:none;}.b{fill:#ccc;}.c{fill:#fff;}.d{fill:#333;}.e{fill:#686f7e;}.f{stroke:#ccc;stroke-linecap:round;}.f,.i,.n{stroke-miterlimit:10;}.g{fill:#b3b3b3;}.h{opacity:0.75;}.i,.n{stroke:#000;}.j{clip-path:url(#a);}.k{fill:#1a1a1a;}.l{clip-path:url(#b);}.m{fill:#1d1d1b;}.n{stroke-width:2px;}.o{clip-path:url(#c);}</style><clipPath id="a"><path class="a" d="M187.3,146.9a25,25,0,0,0-1.5,3.7,51.93,51.93,0,0,1-11.5,2.8,21.45,21.45,0,0,1-13.4-7.1,12.19,12.19,0,0,1,5.8-3.4C170.2,142.1,180.6,140.9,187.3,146.9Z"/></clipPath><clipPath id="b"><path class="a" d="M223.6,146.9a25,25,0,0,1,1.5,3.7,51.93,51.93,0,0,0,11.5,2.8,21.45,21.45,0,0,0,13.4-7.1,12.19,12.19,0,0,0-5.8-3.4C240.7,142.1,230.3,140.9,223.6,146.9Z"/></clipPath><clipPath id="c"><path class="a" d="M137.8,131.8s-1.7-11.1-2.9-18.6c0-.3-.1-.5-.1-.8,1.3-3.4-.7-7.4-.7-10.4v-.7a22.86,22.86,0,0,0,.5-10v-.8c.1-1.8.2-3.6.3-5.2v-.7c.1-3.6,2.1-6.6-.2-10.7a5.16,5.16,0,0,1-.2-1.1,17.32,17.32,0,0,1,.4-7.5,4.1,4.1,0,0,1-.1-1.1,14.79,14.79,0,0,1,1.7-7c.1-.2.1-.5.2-.7.4-1.6.8-3.1.8-3.1s.1-.4.2-1c.1-.3.1-.6.2-1-.9-3.5,1.1-6.5,4.6-8.6a3.11,3.11,0,0,0,.9-.7c2-2.2-.9-6.4,2.5-7.9l.8-.8c2.6-2.8,3.9-4.6,8.3-5.5a5.55,5.55,0,0,0,.8-.6c2.4-1.9,4.1-4.1,6.3-6.1a5,5,0,0,1,.8-.7c2.6-1.8,6.1-1.2,9-3.3a3.55,3.55,0,0,0,.9-.4c2.4-.9,4.6-1.7,7.4-1.2.3-.1.6-.3.9-.4,2-1.1,3.6-2.8,5.8-3.6l.9-.3a10.36,10.36,0,0,1,6.9.3l1-.3c1.9-.5,3.8-1.1,5.9-.5a1.85,1.85,0,0,0,.7-.2c1.1-.3,1.9-.5,1.9-.5h4.4s.8.2,1.9.5a6.37,6.37,0,0,0,.7.2,11.72,11.72,0,0,1,5.9.5c.3.1.6.2,1,.3a9.77,9.77,0,0,1,6.9-.3l.9.3c2.2.8,3.8,2.5,5.8,3.6a3.55,3.55,0,0,0,.9.4c2.7-.5,5,.3,7.4,1.2a3.55,3.55,0,0,1,.9.4c2.9,2,6.4,1.4,9,3.3a2.7,2.7,0,0,1,.8.7c2.3,2.1,4,4.3,6.3,6.1.3.2.5.4.8.6,4.5.9,5.7,2.7,8.3,5.5a6,6,0,0,0,.8.8c3.4,1.5.5,5.7,2.5,7.9a3.51,3.51,0,0,0,.9.7c3.5,2.1,5.5,5.1,4.6,8.6.1.4.1.7.2,1,.1.6.2,1,.2,1s.4,1.4.8,3.1c.1.2.1.5.2.7a13.46,13.46,0,0,1,1.7,7c0,.4-.1.7-.1,1.1a19,19,0,0,1,.4,7.5c-.1.4-.1.8-.2,1.1-2.3,4.1-.3,7.1-.2,10.7v.7c.1,1.6.2,3.4.3,5.2v.8a26.52,26.52,0,0,0,.5,10v.7c0,3.1-2,7.1-.7,10.4,0,.2-.1.5-.1.8-1.2,7.6-2.9,18.6-2.9,18.6l-.1,3.5-4,5.3-2.5-21s-2.8,2-2.8,1a13.58,13.58,0,0,1,.1-1.5c0-.3.1-.6.1-.9,1.5-3.1.5-7.1,1.3-10.2,0-.3.1-.7.1-1,.2-2.3.3-4.6.4-7,0-.3.1-.5.1-.8a59.78,59.78,0,0,0,.9-8.7,2.2,2.2,0,0,1,.1-.8c.6-6,1-10.5,1-10.5l-6.3.3s-1.6-2.1-3-3.9a2.09,2.09,0,0,1-.4-.6c-.8-2.5-2.2-3-3.9-3a3.4,3.4,0,0,0-1,.1C251,74,248,72,245.1,70a2.77,2.77,0,0,0-.9.1c-2.4.2-4.8.4-7.1-1.8-.3-.1-.7-.1-1.2-.2-1.4-.1-3.2-.2-4.7-.3h-.7a66.64,66.64,0,0,0-6.7.8c-.3.1-.7.2-1,.3a34.39,34.39,0,0,1-7.8,3.5,3,3,0,0,1-1,.2c-2.5.2-5.2.6-8,.6h-1.2c-2.7,1.3-4.4.2-6.7-1a9.29,9.29,0,0,0-1-.5c-2.6-2.2-5.9-2.6-9-3.2-.3-.1-.6-.1-.9-.2-3-.2-5.7-.3-8.2-.3h-1.1c-3.2-.1-6.6,2-9.6,3l-.9.3a7.26,7.26,0,0,1-4.2,1.7c-.4,0-.7.1-1.1.1-1.2-.1-2.2-.1-3.2-.1h-1c-2.8,0-4.6,1.4-6.2,3.1l-.7.7c-1,4.2-5,4.2-8,2.2a7.77,7.77,0,0,1-.3,2.4c0,.3.1.6.1.9s.1.6.1.9.1.7.1,1c0,5.8,0,12.8,1.9,18.8,0,.3.1.5.1.8.1,5.2.1,11.2,1.6,16.7,0,.3-.2.3-.4.3a2.26,2.26,0,0,1-.9-.4c-.1-.4-1.1-.4-1.5-.2,0,.2-.1.5-.1.8-.6,4.9-2.3,19.4-2.3,19.4l-4-5.3Z"/></clipPath></defs><title>Prancheta 1</title><path class="b" d="M259.2,132.5a30.78,30.78,0,0,0-11.1-5.3,50.52,50.52,0,0,0-12.3-1.5,103.24,103.24,0,0,0-12.4.8c-4.1.4-8.2,1.1-12.3,1.8s-8.2,1.5-12.3,2.2-8.2,1.4-12.3,1.9-8.3.8-12.4.9a87.33,87.33,0,0,1-12.5-.7v-.1c2.1.1,4.1.3,6.2.2,2.1.1,4.1-.1,6.2-.1,4.1-.3,8.2-.6,12.3-1.2s8.2-1.2,12.3-1.9,8.2-1.4,12.3-2,8.2-1.2,12.4-1.6a103.63,103.63,0,0,1,12.5-.6,50.68,50.68,0,0,1,12.3,1.7,25.8,25.8,0,0,1,11.1,5.5Z"/><path class="b" d="M258.7,111.6a30,30,0,0,0-11.6-4.2,51.46,51.46,0,0,0-12.4-.2,100.07,100.07,0,0,0-12.2,2c-4.1.9-8.1,1.9-12.1,3s-8,2.3-12,3.4-8,2.2-12.1,3.2-8.2,1.7-12.3,2.2a86.53,86.53,0,0,1-12.5.6v-.1c2.1-.1,4.1-.2,6.2-.4s4.1-.5,6.2-.8c4.1-.7,8.1-1.5,12.2-2.5s8-2,12-3.1,8-2.2,12-3.2,8.1-2.1,12.1-2.9,8.2-1.5,12.3-1.9a52.51,52.51,0,0,1,12.5.4,28.84,28.84,0,0,1,11.7,4.5Z"/><polygon class="c" points="160 232.8 146.8 297.3 204.3 342.3 262 303.5 269.3 291.3 254 233 160 232.8"/><path class="d" d="M155,244.3s-5.9,1.5-8.8,2.2a8.33,8.33,0,0,0-1.5.4c-.5.1-1.1.3-1.6.4-1.5.3-3,.7-4.5,1a17.42,17.42,0,0,1-2.2.5c-7.4,2.2-13.4,5.2-19.1,7-.7.4-1.4.7-2.1,1.1a72,72,0,0,0-6.2,4c-1.5,1-3.3.3-5.1-.4a13.89,13.89,0,0,0-1.9-.6c-1.3.1-2.6.3-3.9.4-.6.1-6.6,2.1-7.3,2.2-6.1,3.5-6.8,1.5-13.5.9l-1.8.9A36.68,36.68,0,0,1,60,268.7c-.6.2-7.7,3.9-7.7,3.9s-24.7,15-24.7,45v82.3H375V310.2c0-31.7-27.7-40-27.7-40l-1.2-.3c-.4-.1-.8-.2-1.4-.3a23.66,23.66,0,0,1-17.3-3,21.41,21.41,0,0,1-1.9-1.3,52.07,52.07,0,0,0-18.5-4.9c-.7-.3-1.3-.5-2-.8a27.69,27.69,0,0,0-4.1-1.2c-.4,0-.9-.1-1.3-.1-.6-.1-1.1-.1-1.7-.2s-1.2-.1-1.7-.2C290,257,284,254,276.5,253a18.65,18.65,0,0,1-2-1,39.68,39.68,0,0,1-3.9-2.3c-.7-.5-1.3-1-1.9-1.5-1.8-1.3-6.8-3-6.8-3l4.3,51-62,46-62.7-50.7Z"/><circle class="e" cx="165.6" cy="163.6" r="0.9"/><line class="f" x1="162.3" y1="236.3" x2="153.7" y2="283.3"/><line class="f" x1="254.3" y1="234.3" x2="260.7" y2="283.7"/><path class="c" d="M283.2,138.7s-2,3.3-1.8,5.1-1,7-1.6,9.8-3.5,8.9-3.8,9.6a49.26,49.26,0,0,0-.9,8.5c.1,1.6-4.9,3.9-4.9,3.9l1.2-35.9s6-7.3,9.2-6.3,2.6,5.3,2.6,5.3"/><path class="c" d="M129.3,138.7s2,3.3,1.8,5.1,1,7,1.6,9.8,3.5,8.9,3.8,9.6a49.26,49.26,0,0,1,.9,8.5c-.1,1.6,4.9,3.9,4.9,3.9l-1.2-35.9s-6-7.3-9.2-6.3-2.6,5.3-2.6,5.3"/><path class="b" d="M175.1,262.5,190,305.7l-15.8-42.8a.42.42,0,0,1,.3-.6c.3-.2.5-.1.6.2Z"/><path class="b" d="M241.5,267.5,226,306l14.5-38.8a.45.45,0,0,1,.6-.3c.2.1.5.3.4.6Z"/><path class="g" d="M159.4,230.1l-1,2.9s-12.8,20.3-14.1,24-4,7.7-5.7,14.3-24.3,32-28,38c14-13.3,29.7-13.3,33-10.7s12.3,19.3,14,22.7,41.3,18.3,41.3,18.3l4.3,1.3s0-3.8-4.7-6.7c-7.3-4.2-47-29-45.7-47.7,1.6-1.8,8.8-47,9-48.5l.8-2.1Z"/><path class="d" d="M159.4,230.2l-.9,2.8h0c-3.9,6.5-7.8,12.9-11.5,19.5a38.86,38.86,0,0,0-2.5,5c-.7,1.8-1.5,3.5-2.3,5.2a47.07,47.07,0,0,0-2.1,5.2,38,38,0,0,1-1.8,5.4,74.47,74.47,0,0,1-6.3,9.5c-2.3,3-4.6,6-7,8.9l-7.1,8.8c-2.3,2.9-4.8,5.8-6.9,8.9l-.6-.5a48.45,48.45,0,0,1,11.6-8.1l1.6-.8,1.7-.7a19.3,19.3,0,0,1,3.4-1.1,41.13,41.13,0,0,1,7-1.3,16.47,16.47,0,0,1,7,.8,7.81,7.81,0,0,1,2.7,2.4,29.77,29.77,0,0,1,2,2.9c2.6,3.9,5,8,7.3,12.1l1.7,3.1.8,1.6.4.8.2.4c.1.1.2.2.2.3a14.52,14.52,0,0,0,2.9,1.9c1,.6,2.1,1.1,3.1,1.6,4.2,2,8.6,3.9,12.9,5.6s8.7,3.5,13.1,5.2a123.37,123.37,0,0,0,13.3,4.7l-.6.4a7,7,0,0,0-1.8-4,8.69,8.69,0,0,0-1.7-1.6,13.24,13.24,0,0,0-2-1.2q-4.2-2.4-8.1-5.1c-5.3-3.6-10.5-7.3-15.5-11.4a103.51,103.51,0,0,1-13.8-13.5,43.45,43.45,0,0,1-5.3-8.1,19.53,19.53,0,0,1-2.2-9.5l.1-.3c0-.1.1-.1.1-.2l.1-.3c.1-.2.1-.5.2-.7.1-.5.3-1,.4-1.5.2-1,.5-2,.7-3l1.2-6c.8-4,1.5-8.1,2.2-12.1l2.1-12.2,2.1-12.2h0l.8-2.1v.1Zm0-.1,3.5,5.9v.1l-.7,2.1h0c-1.2,8.2-2.5,16.3-3.9,24.4-.7,4.1-1.4,8.1-2.1,12.2-.4,2-.8,4.1-1.2,6.1-.2,1-.4,2-.7,3a8.33,8.33,0,0,1-.4,1.5c-.1.3-.1.5-.2.8l-.1.4a.76.76,0,0,0-.2.5l.1-.3a19,19,0,0,0,2.2,9,44.89,44.89,0,0,0,5.2,7.9A100.63,100.63,0,0,0,174.5,317c4.9,4,10.1,7.8,15.4,11.4q3.9,2.7,8.1,5.1a12.37,12.37,0,0,1,3.9,3,7.72,7.72,0,0,1,2,4.6.66.66,0,0,1-.4.5h-.1c-4.6-1.3-8.9-3.2-13.3-4.9s-8.7-3.5-13.1-5.4-8.7-3.7-12.9-5.8c-1.1-.5-2.1-1.1-3.2-1.6a14.26,14.26,0,0,1-3-2c-.1-.1-.2-.3-.3-.4l-.2-.4-.4-.8-.8-1.6-1.7-3.1c-2.3-4.1-4.6-8.2-7.2-12.2-.7-1-1.3-1.9-2-2.9a6.16,6.16,0,0,0-2.6-2.2,16.14,16.14,0,0,0-6.9-.7,41.88,41.88,0,0,0-6.9,1.3c-1.1.4-2.2.7-3.3,1.2l-1.6.7-1.6.8a48.19,48.19,0,0,0-11.4,8.1h0a.45.45,0,0,1-.5,0,.45.45,0,0,1,0-.5c2.1-3.2,4.5-6.1,6.9-9.1l7.1-8.8c2.3-3,4.7-5.9,7-8.9a95,95,0,0,0,6.3-9.3c.8-1.6,1.1-3.5,1.8-5.3a49.25,49.25,0,0,1,2.2-5.3c.8-1.7,1.7-3.4,2.4-5.1a48.89,48.89,0,0,1,2.6-5.1c3.8-6.6,7.8-12.9,11.9-19.3h0Z"/><path class="g" d="M255.7,230.2l1.6,2.8s12.8,20.3,14.1,24,1.7,4.3,5.7,14.3,24.3,32,28,38c-14-13.3-29.7-13.3-33-10.7s-13.8,13.5-18.8,22.7-18.5,16.3-36.5,18.3c-6.7-1.7-20,14-20,14s2.2-13.5,12.7-17.8,56.5-35,52.3-47.5-8.1-55.1-8-53.7Z"/><path class="d" d="M255.7,230.1l1.5,2.6c.5.8,1,1.7,1.5,2.5l3.1,5c2,3.3,4.1,6.7,6,10,1,1.7,2,3.4,2.9,5.1.5.9.8,1.8,1.2,2.7l1.1,2.7c1.5,3.6,2.9,7.3,4.4,10.9a62.68,62.68,0,0,0,6.1,9.9c2.3,3.2,4.7,6.2,7.2,9.3l7.4,9.1a109.64,109.64,0,0,1,7.2,9.3.19.19,0,0,1-.1.3.19.19,0,0,1-.3,0h0c-6.5-6.2-14.8-10.7-23.7-11.8a20.81,20.81,0,0,0-6.6.2,14.24,14.24,0,0,0-1.6.5,4.35,4.35,0,0,1-.7.4,2.65,2.65,0,0,0-.6.5c-.8.7-1.7,1.5-2.5,2.3a108.12,108.12,0,0,0-9,10.1c-1.4,1.8-2.8,3.6-4,5.4-.6.9-1.2,1.9-1.8,2.8s-1.1,1.9-1.7,2.9a31.7,31.7,0,0,1-4.5,5.2,42.86,42.86,0,0,1-5.5,4,57.27,57.27,0,0,1-12.5,5.3,76.52,76.52,0,0,1-13.3,2.7h-.1a5.81,5.81,0,0,0-2.9.2,13.9,13.9,0,0,0-2.8,1.2,35.18,35.18,0,0,0-5,3.6,81.24,81.24,0,0,0-8.8,8.8h0a.48.48,0,0,1-.7,0,.76.76,0,0,1-.2-.4,32.24,32.24,0,0,1,3.2-9,21.78,21.78,0,0,1,6.2-7.3c.7-.4,1.3-.9,2.1-1.3s1.5-.7,2.2-1c1.4-.6,2.8-1.4,4.1-2.1,2.7-1.5,5.4-3.2,8-4.8,5.3-3.4,10.4-7,15.3-10.7a149.91,149.91,0,0,0,14.3-12.1,66.6,66.6,0,0,0,6.2-6.9,25.94,25.94,0,0,0,2.5-3.9,11.26,11.26,0,0,0,1.3-4.3,5.7,5.7,0,0,0-.4-2.2c-.2-.8-.4-1.5-.6-2.3-.4-1.5-.7-3.1-1-4.6-.6-3.1-1.1-6.2-1.6-9.3-.9-6.2-1.7-12.4-2.5-18.6l-1-9.3-.5-4.7-.2-2.3-.1-1.2-.1-.6v-.5c-.2,0,.2-.1.2-.1h-.2Zm0,.1-1.9,4.5s-.1.1-.1,0l-.1-.1h.2v.5l.1.6.1,1.2.3,2.3.5,4.7,1.1,9.3c.8,6.2,1.6,12.4,2.6,18.6.5,3.1,1,6.2,1.7,9.2.3,1.5.7,3,1.1,4.6.2.8.4,1.5.6,2.2a4.88,4.88,0,0,1,.4,2.4,11.68,11.68,0,0,1-1.3,4.6,27,27,0,0,1-2.5,4,60.36,60.36,0,0,1-6.3,7.1,151,151,0,0,1-14.3,12.2c-5,3.8-10.1,7.4-15.4,10.8-2.6,1.7-5.3,3.3-8.1,4.9-1.4.8-2.8,1.5-4.2,2.2-.8.3-1.4.7-2.1,1a12.22,12.22,0,0,0-1.9,1.2c-4.9,3.7-7.8,9.6-9,15.6l-.8-.4a84,84,0,0,1,9-8.9,40.36,40.36,0,0,1,5.2-3.7,13.59,13.59,0,0,1,3-1.3,6.14,6.14,0,0,1,3.3-.2h-.1c8.9-1,17.8-3.3,25.6-7.8a41.12,41.12,0,0,0,5.4-3.9,23.24,23.24,0,0,0,4.4-5,27.55,27.55,0,0,0,1.7-2.9c.6-1,1.2-1.9,1.8-2.9,1.3-1.9,2.6-3.7,4.1-5.5a123.8,123.8,0,0,1,9.1-10.1,27.25,27.25,0,0,1,2.5-2.3,1.79,1.79,0,0,1,.7-.5c.3-.2.5-.3.8-.5a10.93,10.93,0,0,1,1.7-.5,22.27,22.27,0,0,1,6.8-.2c9.1,1.1,17.4,5.7,24,12l-.4.3c-2.1-3.2-4.7-6.2-7.1-9.3l-7.4-9.1c-2.4-3.1-4.8-6.1-7.1-9.3a56.9,56.9,0,0,1-6.1-10c-1.5-3.6-2.9-7.3-4.3-10.9l-1.1-2.7c-.4-.9-.7-1.8-1.2-2.7-.9-1.7-1.9-3.4-2.8-5.1-2-3.4-4-6.7-6-10.1l-3.1-5c-.5-.8-1-1.7-1.5-2.5Z"/><path class="c" d="M270.5,140.5l-2.5-21s-2.8,2-2.8,1,4-41.3,4-41.3L249.5,65l-47,.8-40,1.5-20,12s4,40.3,4,41.3-2.8-1-2.8-1l-2.5,20.8c0,15.8.1,27.6.2,28.4,8,50.4,29,98.6,64.8,99.6,33.5,1,61.8-44.3,64.8-99.6.1-1.3,0-13.2,0-28.8Z"/><path d="M270.5,140.5l-2.7-21,.3.1c-.4.3-.8.5-1.2.8a4.54,4.54,0,0,1-1.4.6.68.68,0,0,1-.5-.3c-.1-.2,0-.3,0-.4l.1-.7.1-1.4.5-5.6,1.1-11.1,2.1-22.2.1.3L249.2,65.4l.2.1-43.4.6c-3.6,0-7.2.2-10.9.3l-10.9.4-21.7.7h.1l-20,11.9.1-.2,2.1,22.2,1.1,11.1.5,5.6.1,1.4.1.7v.4c0,.2-.3.3-.4.3a5.78,5.78,0,0,1-1.4-.5,8.34,8.34,0,0,1-1.2-.8l.3-.1-2.4,20.8h0l.1,19.6.1,4.9v3.7a5,5,0,0,0,.2,1.2q.75,4.8,1.8,9.6A225.25,225.25,0,0,0,154.5,217a158.05,158.05,0,0,0,8.2,17.7,94,94,0,0,0,11.1,16.1,55.45,55.45,0,0,0,15,12.3,37.9,37.9,0,0,0,37.1-.3A59.12,59.12,0,0,0,241,250.6c8.7-9.7,15.1-21.3,19.7-33.5a159.59,159.59,0,0,0,9.1-38c.4-3.2.7-6.5.9-9.8s.1-6.5.1-9.8l.1-19.6h.1A2.66,2.66,0,0,1,270.5,140.5Zm0,0c.1-.2.3-.4.4-.6l.1-.1v.2l.2,19.6c0,3.3.1,6.5,0,9.8s-.4,6.5-.8,9.8a157.18,157.18,0,0,1-8.9,38.2,120.86,120.86,0,0,1-8.3,17.9,86.08,86.08,0,0,1-11.4,16,59.12,59.12,0,0,1-15.3,12.4,39.73,39.73,0,0,1-19,5.1,40.21,40.21,0,0,1-19.1-4.9,53.79,53.79,0,0,1-15.2-12.5A99.48,99.48,0,0,1,162,235.2a131.39,131.39,0,0,1-8.2-17.9,228.41,228.41,0,0,1-10.6-37.8c-.6-3.2-1.2-6.4-1.7-9.7-.1-.4-.1-.8-.2-1.2V140.4h0l2.5-20.8v-.3l.2.2c.4.3.8.5,1.2.8a3.08,3.08,0,0,0,1.2.5h.1v-.3l-.1-.7-.1-1.4-.5-5.6-1.1-11.1-2.3-22.2v-.2l.1-.1,20-12.1h.2l21.7-.9,10.9-.5c3.6-.2,7.2-.3,10.9-.3l43.5-.6h.1l.1.1L269.4,79l.2.1v.2l-2.3,22.2-1.1,11.1-.6,5.6-.1,1.4-.1.7v.3h.1a3.08,3.08,0,0,0,1.2-.5c.4-.2.8-.5,1.2-.7l.3-.2v.3Z"/><g class="h"><circle cx="269.1" cy="165" r="0.5"/><circle cx="270.2" cy="166.6" r="0.5"/><circle cx="268" cy="166.6" r="0.5"/><circle cx="142" cy="166.6" r="0.5"/><circle cx="269.1" cy="168" r="0.5"/><circle cx="143.1" cy="168" r="0.5"/><circle cx="270.2" cy="169.6" r="0.5"/><circle cx="268" cy="169.6" r="0.5"/><circle cx="144.2" cy="169.6" r="0.5"/><circle cx="142" cy="169.6" r="0.5"/><circle cx="269.1" cy="171" r="0.5"/><circle cx="143.1" cy="171" r="0.5"/><circle cx="270.2" cy="172.6" r="0.5"/><circle cx="268" cy="172.6" r="0.5"/><circle cx="144.2" cy="172.6" r="0.5"/><circle cx="269.1" cy="174" r="0.5"/><circle cx="266.8" cy="174" r="0.5"/><circle cx="145.3" cy="174" r="0.5"/><circle cx="143.1" cy="174" r="0.5"/><circle cx="268" cy="175.6" r="0.5"/><circle cx="144.2" cy="175.6" r="0.5"/><circle cx="269.1" cy="177" r="0.5"/><circle cx="266.8" cy="177" r="0.5"/><circle cx="145.3" cy="177" r="0.5"/><circle cx="268" cy="178.6" r="0.5"/><circle cx="146.5" cy="178.6" r="0.5"/><circle cx="144.2" cy="178.6" r="0.5"/><circle cx="269.1" cy="180" r="0.5"/><circle cx="266.8" cy="180" r="0.5"/><circle cx="145.3" cy="180" r="0.5"/><circle cx="268" cy="181.6" r="0.5"/><circle cx="146.5" cy="181.6" r="0.5"/><circle cx="269.1" cy="183" r="0.5"/><circle cx="266.8" cy="183" r="0.5"/><circle cx="147.6" cy="183" r="0.5"/><circle cx="145.3" cy="183" r="0.5"/><circle cx="268" cy="184.6" r="0.5"/><circle cx="265.7" cy="184.6" r="0.5"/><circle cx="148.7" cy="184.6" r="0.5"/><circle cx="146.5" cy="184.6" r="0.5"/><circle cx="266.8" cy="186" r="0.5"/><circle cx="147.6" cy="186" r="0.5"/><circle cx="145.3" cy="186" r="0.5"/><circle cx="268" cy="187.6" r="0.5"/><circle cx="265.7" cy="187.6" r="0.5"/><circle cx="148.7" cy="187.6" r="0.5"/><circle cx="146.5" cy="187.6" r="0.5"/><circle cx="266.8" cy="189" r="0.5"/><circle cx="149.8" cy="189" r="0.5"/><circle cx="147.6" cy="189" r="0.5"/><circle cx="267.9" cy="190.6" r="0.5"/><circle cx="265.7" cy="190.6" r="0.5"/><circle cx="148.7" cy="190.6" r="0.5"/><circle cx="146.5" cy="190.6" r="0.5"/><circle cx="266.8" cy="192" r="0.5"/><circle cx="264.6" cy="192" r="0.5"/><circle cx="149.8" cy="192" r="0.5"/><circle cx="147.6" cy="192" r="0.5"/><circle cx="265.7" cy="193.6" r="0.5"/><circle cx="263.5" cy="193.6" r="0.5"/><circle cx="148.7" cy="193.6" r="0.5"/><circle cx="266.8" cy="195" r="0.5"/><circle cx="264.6" cy="195" r="0.5"/><circle cx="149.8" cy="195" r="0.5"/><circle cx="147.6" cy="195" r="0.5"/><circle cx="265.7" cy="196.6" r="0.5"/><circle cx="263.5" cy="196.6" r="0.5"/><circle cx="148.7" cy="196.6" r="0.5"/><circle cx="264.6" cy="198" r="0.5"/><circle cx="262.3" cy="198" r="0.5"/><circle cx="149.8" cy="198" r="0.5"/><circle cx="265.7" cy="199.6" r="0.5"/><circle cx="263.5" cy="199.6" r="0.5"/><circle cx="153.2" cy="199.6" r="0.5"/><circle cx="151" cy="199.6" r="0.5"/><circle cx="148.7" cy="199.6" r="0.5"/><circle cx="264.6" cy="201" r="0.5"/><circle cx="262.3" cy="201" r="0.5"/><circle cx="217.3" cy="201" r="0.5"/><circle cx="215.1" cy="201" r="0.5"/><circle cx="212.8" cy="201" r="0.5"/><circle cx="199.3" cy="201" r="0.5"/><circle cx="197.1" cy="201" r="0.5"/><circle cx="194.8" cy="201" r="0.5"/><circle cx="192.6" cy="201" r="0.5"/><circle cx="190.3" cy="201" r="0.5"/><circle cx="152.1" cy="201" r="0.5"/><circle cx="149.8" cy="201" r="0.5"/><circle cx="263.5" cy="202.6" r="0.5"/><circle cx="261.2" cy="202.6" r="0.5"/><circle cx="225.2" cy="202.6" r="0.5"/><circle cx="223" cy="202.6" r="0.5"/><circle cx="220.7" cy="202.6" r="0.5"/><circle cx="218.5" cy="202.6" r="0.5"/><circle cx="216.2" cy="202.6" r="0.5"/><circle cx="214" cy="202.6" r="0.5"/><circle cx="211.7" cy="202.6" r="0.5"/><circle cx="200.5" cy="202.6" r="0.5"/><circle cx="198.2" cy="202.6" r="0.5"/><circle cx="196" cy="202.6" r="0.5"/><circle cx="193.7" cy="202.6" r="0.5"/><circle cx="191.5" cy="202.6" r="0.5"/><circle cx="189.2" cy="202.6" r="0.5"/><circle cx="187" cy="202.6" r="0.5"/><circle cx="184.7" cy="202.6" r="0.5"/><circle cx="182.5" cy="202.6" r="0.5"/><circle cx="153.2" cy="202.6" r="0.5"/><circle cx="151" cy="202.6" r="0.5"/><circle cx="264.6" cy="204" r="0.5"/><circle cx="262.3" cy="204" r="0.5"/><circle cx="260.1" cy="204" r="0.5"/><circle cx="233.1" cy="204" r="0.5"/><circle cx="230.8" cy="204" r="0.5"/><circle cx="228.6" cy="204" r="0.5"/><circle cx="226.3" cy="204" r="0.5"/><circle cx="224.1" cy="204" r="0.5"/><circle cx="221.8" cy="204" r="0.5"/><circle cx="219.6" cy="204" r="0.5"/><circle cx="217.3" cy="204" r="0.5"/><circle cx="215.1" cy="204" r="0.5"/><circle cx="212.8" cy="204" r="0.5"/><circle cx="210.6" cy="204" r="0.5"/><circle cx="208.3" cy="204" r="0.5"/><circle cx="206.1" cy="204" r="0.5"/><circle cx="203.8" cy="204" r="0.5"/><circle cx="201.6" cy="204" r="0.5"/><circle cx="199.3" cy="204" r="0.5"/><circle cx="197.1" cy="204" r="0.5"/><circle cx="194.8" cy="204" r="0.5"/><circle cx="192.6" cy="204" r="0.5"/><circle cx="190.3" cy="204" r="0.5"/><circle cx="188.1" cy="204" r="0.5"/><circle cx="185.8" cy="204" r="0.5"/><circle cx="183.6" cy="204" r="0.5"/><circle cx="181.3" cy="204" r="0.5"/><circle cx="179.1" cy="204" r="0.5"/><circle cx="176.8" cy="204" r="0.5"/><circle cx="154.3" cy="204" r="0.5"/><circle cx="152.1" cy="204" r="0.5"/><circle cx="263.5" cy="205.6" r="0.5"/><circle cx="261.2" cy="205.6" r="0.5"/><circle cx="241" cy="205.6" r="0.5"/><circle cx="238.7" cy="205.6" r="0.5"/><circle cx="236.5" cy="205.6" r="0.5"/><circle cx="234.2" cy="205.6" r="0.5"/><circle cx="232" cy="205.6" r="0.5"/><circle cx="229.7" cy="205.6" r="0.5"/><circle cx="227.5" cy="205.6" r="0.5"/><circle cx="225.2" cy="205.6" r="0.5"/><circle cx="223" cy="205.6" r="0.5"/><circle cx="220.7" cy="205.6" r="0.5"/><circle cx="218.5" cy="205.6" r="0.5"/><circle cx="216.2" cy="205.6" r="0.5"/><circle cx="214" cy="205.6" r="0.5"/><circle cx="211.7" cy="205.6" r="0.5"/><circle cx="209.5" cy="205.6" r="0.5"/><circle cx="207.2" cy="205.6" r="0.5"/><circle cx="205" cy="205.6" r="0.5"/><circle cx="202.7" cy="205.6" r="0.5"/><circle cx="200.5" cy="205.6" r="0.5"/><circle cx="198.2" cy="205.6" r="0.5"/><circle cx="196" cy="205.6" r="0.5"/><circle cx="193.7" cy="205.6" r="0.5"/><circle cx="191.5" cy="205.6" r="0.5"/><circle cx="189.2" cy="205.6" r="0.5"/><circle cx="187" cy="205.6" r="0.5"/><circle cx="184.7" cy="205.6" r="0.5"/><circle cx="182.5" cy="205.6" r="0.5"/><circle cx="180.2" cy="205.6" r="0.5"/><circle cx="178" cy="205.6" r="0.5"/><circle cx="175.7" cy="205.6" r="0.5"/><circle cx="173.5" cy="205.6" r="0.5"/><circle cx="171.2" cy="205.6" r="0.5"/><circle cx="153.2" cy="205.6" r="0.5"/><circle cx="151" cy="205.6" r="0.5"/><circle cx="262.3" cy="207" r="0.5"/><circle cx="260.1" cy="207" r="0.5"/><circle cx="244.3" cy="207" r="0.5"/><circle cx="242.1" cy="207" r="0.5"/><circle cx="239.8" cy="207" r="0.5"/><circle cx="237.6" cy="207" r="0.5"/><circle cx="235.3" cy="207" r="0.5"/><circle cx="233.1" cy="207" r="0.5"/><circle cx="230.8" cy="207" r="0.5"/><circle cx="228.6" cy="207" r="0.5"/><circle cx="226.3" cy="207" r="0.5"/><circle cx="224.1" cy="207" r="0.5"/><circle cx="221.8" cy="207" r="0.5"/><circle cx="219.6" cy="207" r="0.5"/><circle cx="217.3" cy="207" r="0.5"/><circle cx="215.1" cy="207" r="0.5"/><circle cx="212.8" cy="207" r="0.5"/><circle cx="210.6" cy="207" r="0.5"/><circle cx="208.3" cy="207" r="0.5"/><circle cx="206.1" cy="207" r="0.5"/><circle cx="203.8" cy="207" r="0.5"/><circle cx="201.6" cy="207" r="0.5"/><circle cx="199.3" cy="207" r="0.5"/><circle cx="197.1" cy="207" r="0.5"/><circle cx="194.8" cy="207" r="0.5"/><circle cx="192.6" cy="207" r="0.5"/><circle cx="190.3" cy="207" r="0.5"/><circle cx="188.1" cy="207" r="0.5"/><circle cx="185.8" cy="207" r="0.5"/><circle cx="183.6" cy="207" r="0.5"/><circle cx="181.3" cy="207" r="0.5"/><circle cx="179.1" cy="207" r="0.5"/><circle cx="176.8" cy="207" r="0.5"/><circle cx="174.6" cy="207" r="0.5"/><circle cx="172.3" cy="207" r="0.5"/><circle cx="170.1" cy="207" r="0.5"/><circle cx="154.3" cy="207" r="0.5"/><circle cx="152.1" cy="207" r="0.5"/><circle cx="263.5" cy="208.6" r="0.5"/><circle cx="261.2" cy="208.6" r="0.5"/><circle cx="259" cy="208.6" r="0.5"/><circle cx="245.5" cy="208.6" r="0.5"/><circle cx="243.2" cy="208.6" r="0.5"/><circle cx="241" cy="208.6" r="0.5"/><circle cx="238.7" cy="208.6" r="0.5"/><circle cx="236.5" cy="208.6" r="0.5"/><circle cx="234.2" cy="208.6" r="0.5"/><circle cx="232" cy="208.6" r="0.5"/><circle cx="229.7" cy="208.6" r="0.5"/><circle cx="227.5" cy="208.6" r="0.5"/><circle cx="225.2" cy="208.6" r="0.5"/><circle cx="223" cy="208.6" r="0.5"/><circle cx="220.7" cy="208.6" r="0.5"/><circle cx="218.5" cy="208.6" r="0.5"/><circle cx="216.2" cy="208.6" r="0.5"/><circle cx="214" cy="208.6" r="0.5"/><circle cx="211.7" cy="208.6" r="0.5"/><circle cx="209.5" cy="208.6" r="0.5"/><circle cx="207.2" cy="208.6" r="0.5"/><circle cx="205" cy="208.6" r="0.5"/><circle cx="202.7" cy="208.6" r="0.5"/><circle cx="200.5" cy="208.6" r="0.5"/><circle cx="198.2" cy="208.6" r="0.5"/><circle cx="196" cy="208.6" r="0.5"/><circle cx="193.7" cy="208.6" r="0.5"/><circle cx="191.5" cy="208.6" r="0.5"/><circle cx="189.2" cy="208.6" r="0.5"/><circle cx="187" cy="208.6" r="0.5"/><circle cx="184.7" cy="208.6" r="0.5"/><circle cx="182.5" cy="208.6" r="0.5"/><circle cx="180.2" cy="208.6" r="0.5"/><circle cx="178" cy="208.6" r="0.5"/><circle cx="175.7" cy="208.6" r="0.5"/><circle cx="173.5" cy="208.6" r="0.5"/><circle cx="171.2" cy="208.6" r="0.5"/><circle cx="155.5" cy="208.6" r="0.5"/><circle cx="153.2" cy="208.6" r="0.5"/><circle cx="262.3" cy="210" r="0.5"/><circle cx="260.1" cy="210" r="0.5"/><circle cx="257.8" cy="210" r="0.5"/><circle cx="244.3" cy="210" r="0.5"/><circle cx="242.1" cy="210" r="0.5"/><circle cx="239.8" cy="210" r="0.5"/><circle cx="237.6" cy="210" r="0.5"/><circle cx="235.3" cy="210" r="0.5"/><circle cx="233.1" cy="210" r="0.5"/><circle cx="230.8" cy="210" r="0.5"/><circle cx="228.6" cy="210" r="0.5"/><circle cx="226.3" cy="210" r="0.5"/><circle cx="224.1" cy="210" r="0.5"/><circle cx="221.8" cy="210" r="0.5"/><circle cx="219.6" cy="210" r="0.5"/><circle cx="217.3" cy="210" r="0.5"/><circle cx="183.6" cy="210" r="0.5"/><circle cx="181.3" cy="210" r="0.5"/><circle cx="179.1" cy="210" r="0.5"/><circle cx="176.8" cy="210" r="0.5"/><circle cx="174.6" cy="210" r="0.5"/><circle cx="172.3" cy="210" r="0.5"/><circle cx="170.1" cy="210" r="0.5"/><circle cx="154.3" cy="210" r="0.5"/><circle cx="152.1" cy="210" r="0.5"/><circle cx="261.2" cy="211.6" r="0.5"/><circle cx="259" cy="211.6" r="0.5"/><circle cx="245.5" cy="211.6" r="0.5"/><circle cx="243.2" cy="211.6" r="0.5"/><circle cx="241" cy="211.6" r="0.5"/><circle cx="238.7" cy="211.6" r="0.5"/><circle cx="236.5" cy="211.6" r="0.5"/><circle cx="234.2" cy="211.6" r="0.5"/><circle cx="232" cy="211.6" r="0.5"/><circle cx="229.7" cy="211.6" r="0.5"/><circle cx="175.7" cy="211.6" r="0.5"/><circle cx="173.5" cy="211.6" r="0.5"/><circle cx="171.2" cy="211.6" r="0.5"/><circle cx="169" cy="211.6" r="0.5"/><circle cx="155.5" cy="211.6" r="0.5"/><circle cx="153.2" cy="211.6" r="0.5"/><circle cx="260.1" cy="213" r="0.5"/><circle cx="257.8" cy="213" r="0.5"/><circle cx="246.6" cy="213" r="0.5"/><circle cx="244.3" cy="213" r="0.5"/><circle cx="242.1" cy="213" r="0.5"/><circle cx="239.8" cy="213" r="0.5"/><circle cx="237.6" cy="213" r="0.5"/><circle cx="174.6" cy="213" r="0.5"/><circle cx="172.3" cy="213" r="0.5"/><circle cx="170.1" cy="213" r="0.5"/><circle cx="167.8" cy="213" r="0.5"/><circle cx="156.6" cy="213" r="0.5"/><circle cx="154.3" cy="213" r="0.5"/><circle cx="261.2" cy="214.6" r="0.5"/><circle cx="259" cy="214.6" r="0.5"/><circle cx="256.7" cy="214.6" r="0.5"/><circle cx="247.7" cy="214.6" r="0.5"/><circle cx="245.5" cy="214.6" r="0.5"/><circle cx="243.2" cy="214.6" r="0.5"/><circle cx="241" cy="214.6" r="0.5"/><circle cx="238.7" cy="214.6" r="0.5"/><circle cx="173.5" cy="214.6" r="0.5"/><circle cx="171.2" cy="214.6" r="0.5"/><circle cx="169" cy="214.6" r="0.5"/><circle cx="166.7" cy="214.6" r="0.5"/><circle cx="157.7" cy="214.6" r="0.5"/><circle cx="155.5" cy="214.6" r="0.5"/><circle cx="260.1" cy="216" r="0.5"/><circle cx="257.8" cy="216" r="0.5"/><circle cx="255.6" cy="216" r="0.5"/><circle cx="246.6" cy="216" r="0.5"/><circle cx="244.3" cy="216" r="0.5"/><circle cx="242.1" cy="216" r="0.5"/><circle cx="239.8" cy="216" r="0.5"/><circle cx="235.3" cy="216" r="0.5"/><circle cx="172.3" cy="216" r="0.5"/><circle cx="170.1" cy="216" r="0.5"/><circle cx="167.8" cy="216" r="0.5"/><circle cx="156.6" cy="216" r="0.5"/><circle cx="154.3" cy="216" r="0.5"/><circle cx="259" cy="217.6" r="0.5"/><circle cx="256.7" cy="217.6" r="0.5"/><circle cx="247.7" cy="217.6" r="0.5"/><circle cx="245.5" cy="217.6" r="0.5"/><circle cx="243.2" cy="217.6" r="0.5"/><circle cx="241" cy="217.6" r="0.5"/><circle cx="171.2" cy="217.6" r="0.5"/><circle cx="169" cy="217.6" r="0.5"/><circle cx="166.7" cy="217.6" r="0.5"/><circle cx="157.7" cy="217.6" r="0.5"/><circle cx="155.5" cy="217.6" r="0.5"/><circle cx="259.8" cy="219" r="0.5"/><circle cx="257.8" cy="219" r="0.5"/><circle cx="255.6" cy="219" r="0.5"/><circle cx="248.8" cy="219" r="0.5"/><circle cx="246.6" cy="219" r="0.5"/><circle cx="244.3" cy="219" r="0.5"/><circle cx="242.1" cy="219" r="0.5"/><circle cx="170.1" cy="219" r="0.5"/><circle cx="167.8" cy="219" r="0.5"/><circle cx="165.6" cy="219" r="0.5"/><circle cx="158.8" cy="219" r="0.5"/><circle cx="156.6" cy="219" r="0.5"/><circle cx="259" cy="220.6" r="0.5"/><circle cx="256.7" cy="220.6" r="0.5"/><circle cx="254.5" cy="220.6" r="0.5"/><circle cx="250" cy="220.6" r="0.5"/><circle cx="247.7" cy="220.6" r="0.5"/><circle cx="245.5" cy="220.6" r="0.5"/><circle cx="243.2" cy="220.6" r="0.5"/><circle cx="171.2" cy="220.6" r="0.5"/><circle cx="169" cy="220.6" r="0.5"/><circle cx="166.7" cy="220.6" r="0.5"/><circle cx="164.5" cy="220.6" r="0.5"/><circle cx="162.2" cy="220.6" r="0.5"/><circle cx="160" cy="220.6" r="0.5"/><circle cx="157.7" cy="220.6" r="0.5"/><circle cx="257.8" cy="222" r="0.5"/><circle cx="255.6" cy="222" r="0.5"/><circle cx="253.3" cy="222" r="0.5"/><circle cx="251.1" cy="222" r="0.5"/><circle cx="248.8" cy="222" r="0.5"/><circle cx="246.6" cy="222" r="0.5"/><circle cx="244.3" cy="222" r="0.5"/><circle cx="170.1" cy="222" r="0.5"/><circle cx="167.8" cy="222" r="0.5"/><circle cx="165.6" cy="222" r="0.5"/><circle cx="163.3" cy="222" r="0.5"/><circle cx="161.1" cy="222" r="0.5"/><circle cx="158.8" cy="222" r="0.5"/><circle cx="156.6" cy="222" r="0.5"/><circle cx="256.7" cy="223.6" r="0.5"/><circle cx="254.5" cy="223.6" r="0.5"/><circle cx="252.2" cy="223.6" r="0.5"/><circle cx="250" cy="223.6" r="0.5"/><circle cx="247.7" cy="223.6" r="0.5"/><circle cx="245.5" cy="223.6" r="0.5"/><circle cx="243.2" cy="223.6" r="0.5"/><circle cx="171.2" cy="223.6" r="0.5"/><circle cx="169" cy="223.6" r="0.5"/><circle cx="166.7" cy="223.6" r="0.5"/><circle cx="164.5" cy="223.6" r="0.5"/><circle cx="162.2" cy="223.6" r="0.5"/><circle cx="160" cy="223.6" r="0.5"/><circle cx="157.7" cy="223.6" r="0.5"/><circle cx="255.6" cy="225" r="0.5"/><circle cx="253.3" cy="225" r="0.5"/><circle cx="251.1" cy="225" r="0.5"/><circle cx="248.8" cy="225" r="0.5"/><circle cx="246.6" cy="225" r="0.5"/><circle cx="244.3" cy="225" r="0.5"/><circle cx="170.1" cy="225" r="0.5"/><circle cx="167.8" cy="225" r="0.5"/><circle cx="165.6" cy="225" r="0.5"/><circle cx="163.3" cy="225" r="0.5"/><circle cx="161.1" cy="225" r="0.5"/><circle cx="158.8" cy="225" r="0.5"/><circle cx="256.5" cy="226.6" r="0.5"/><circle cx="254.5" cy="226.6" r="0.5"/><circle cx="252.2" cy="226.6" r="0.5"/><circle cx="250" cy="226.6" r="0.5"/><circle cx="247.7" cy="226.6" r="0.5"/><circle cx="245.5" cy="226.6" r="0.5"/><circle cx="243.2" cy="226.6" r="0.5"/><circle cx="171.2" cy="226.6" r="0.5"/><circle cx="169" cy="226.6" r="0.5"/><circle cx="166.7" cy="226.6" r="0.5"/><circle cx="164.5" cy="226.6" r="0.5"/><circle cx="162.2" cy="226.6" r="0.5"/><circle cx="160" cy="226.6" r="0.5"/><circle cx="255.6" cy="228" r="0.5"/><circle cx="253.3" cy="228" r="0.5"/><circle cx="251.1" cy="228" r="0.5"/><circle cx="248.8" cy="228" r="0.5"/><circle cx="246.6" cy="228" r="0.5"/><circle cx="244.3" cy="228" r="0.5"/><circle cx="170.1" cy="228" r="0.5"/><circle cx="167.8" cy="228" r="0.5"/><circle cx="165.6" cy="228" r="0.5"/><circle cx="163.3" cy="228" r="0.5"/><circle cx="161.1" cy="228" r="0.5"/><circle cx="254.5" cy="229.6" r="0.5"/><circle cx="252.2" cy="229.6" r="0.5"/><circle cx="250" cy="229.6" r="0.5"/><circle cx="247.7" cy="229.6" r="0.5"/><circle cx="245.5" cy="229.6" r="0.5"/><circle cx="243.2" cy="229.6" r="0.5"/><circle cx="171.2" cy="229.6" r="0.5"/><circle cx="169" cy="229.6" r="0.5"/><circle cx="166.7" cy="229.6" r="0.5"/><circle cx="164.5" cy="229.6" r="0.5"/><circle cx="162.2" cy="229.6" r="0.5"/><circle cx="253.3" cy="231" r="0.5"/><circle cx="251.1" cy="231" r="0.5"/><circle cx="248.8" cy="231" r="0.5"/><circle cx="246.6" cy="231" r="0.5"/><circle cx="244.3" cy="231" r="0.5"/><circle cx="172.3" cy="231" r="0.5"/><circle cx="170.1" cy="231" r="0.5"/><circle cx="167.8" cy="231" r="0.5"/><circle cx="165.6" cy="231" r="0.5"/><circle cx="163.3" cy="231" r="0.5"/><circle cx="161.1" cy="231" r="0.5"/><circle cx="252.2" cy="232.6" r="0.5"/><circle cx="250" cy="232.6" r="0.5"/><circle cx="247.7" cy="232.6" r="0.5"/><circle cx="245.5" cy="232.6" r="0.5"/><circle cx="243.2" cy="232.6" r="0.5"/><circle cx="173.5" cy="232.6" r="0.5"/><circle cx="171.2" cy="232.6" r="0.5"/><circle cx="169" cy="232.6" r="0.5"/><circle cx="166.7" cy="232.6" r="0.5"/><circle cx="164.5" cy="232.6" r="0.5"/><circle cx="162.2" cy="232.6" r="0.5"/><circle cx="251.1" cy="234" r="0.5"/><circle cx="248.8" cy="234" r="0.5"/><circle cx="246.6" cy="234" r="0.5"/><circle cx="244.3" cy="234" r="0.5"/><circle cx="242.1" cy="234" r="0.5"/><circle cx="215.1" cy="234" r="0.5"/><circle cx="212.8" cy="234" r="0.5"/><circle cx="199.3" cy="234" r="0.5"/><circle cx="197.1" cy="234" r="0.5"/><circle cx="174.6" cy="234" r="0.5"/><circle cx="172.3" cy="234" r="0.5"/><circle cx="170.1" cy="234" r="0.5"/><circle cx="167.8" cy="234" r="0.5"/><circle cx="165.6" cy="234" r="0.5"/><circle cx="163.3" cy="234" r="0.5"/><circle cx="250" cy="235.6" r="0.5"/><circle cx="247.7" cy="235.6" r="0.5"/><circle cx="245.5" cy="235.6" r="0.5"/><circle cx="243.2" cy="235.6" r="0.5"/><circle cx="241" cy="235.6" r="0.5"/><circle cx="218.5" cy="235.6" r="0.5"/><circle cx="216.2" cy="235.6" r="0.5"/><circle cx="214" cy="235.6" r="0.5"/><circle cx="211.7" cy="235.6" r="0.5"/><circle cx="209.5" cy="235.6" r="0.5"/><circle cx="207.2" cy="235.6" r="0.5"/><circle cx="205" cy="235.6" r="0.5"/><circle cx="202.7" cy="235.6" r="0.5"/><circle cx="200.5" cy="235.6" r="0.5"/><circle cx="198.2" cy="235.6" r="0.5"/><circle cx="196" cy="235.6" r="0.5"/><circle cx="193.7" cy="235.6" r="0.5"/><circle cx="173.5" cy="235.6" r="0.5"/><circle cx="171.2" cy="235.6" r="0.5"/><circle cx="169" cy="235.6" r="0.5"/><circle cx="166.7" cy="235.6" r="0.5"/><circle cx="164.5" cy="235.6" r="0.5"/><circle cx="251.1" cy="237" r="0.5"/><circle cx="248.8" cy="237" r="0.5"/><circle cx="246.6" cy="237" r="0.5"/><circle cx="244.3" cy="237" r="0.5"/><circle cx="242.1" cy="237" r="0.5"/><circle cx="219.6" cy="237" r="0.5"/><circle cx="217.3" cy="237" r="0.5"/><circle cx="215.1" cy="237" r="0.5"/><circle cx="212.8" cy="237" r="0.5"/><circle cx="210.6" cy="237" r="0.5"/><circle cx="208.3" cy="237" r="0.5"/><circle cx="206.1" cy="237" r="0.5"/><circle cx="203.8" cy="237" r="0.5"/><circle cx="201.6" cy="237" r="0.5"/><circle cx="199.3" cy="237" r="0.5"/><circle cx="197.1" cy="237" r="0.5"/><circle cx="194.8" cy="237" r="0.5"/><circle cx="192.6" cy="237" r="0.5"/><circle cx="174.6" cy="237" r="0.5"/><circle cx="172.3" cy="237" r="0.5"/><circle cx="170.1" cy="237" r="0.5"/><circle cx="167.8" cy="237" r="0.5"/><circle cx="165.6" cy="237" r="0.5"/><circle cx="250" cy="238.6" r="0.5"/><circle cx="247.7" cy="238.6" r="0.5"/><circle cx="245.5" cy="238.6" r="0.5"/><circle cx="243.2" cy="238.6" r="0.5"/><circle cx="241" cy="238.6" r="0.5"/><circle cx="220.7" cy="238.6" r="0.5"/><circle cx="218.5" cy="238.6" r="0.5"/><circle cx="216.2" cy="238.6" r="0.5"/><circle cx="214" cy="238.6" r="0.5"/><circle cx="211.7" cy="238.6" r="0.5"/><circle cx="209.5" cy="238.6" r="0.5"/><circle cx="207.2" cy="238.6" r="0.5"/><circle cx="205" cy="238.6" r="0.5"/><circle cx="202.7" cy="238.6" r="0.5"/><circle cx="200.5" cy="238.6" r="0.5"/><circle cx="198.2" cy="238.6" r="0.5"/><circle cx="196" cy="238.6" r="0.5"/><circle cx="193.7" cy="238.6" r="0.5"/><circle cx="191.5" cy="238.6" r="0.5"/><circle cx="175.7" cy="238.6" r="0.5"/><circle cx="173.5" cy="238.6" r="0.5"/><circle cx="171.2" cy="238.6" r="0.5"/><circle cx="169" cy="238.6" r="0.5"/><circle cx="166.7" cy="238.6" r="0.5"/><circle cx="248.8" cy="240" r="0.5"/><circle cx="246.6" cy="240" r="0.5"/><circle cx="244.3" cy="240" r="0.5"/><circle cx="242.1" cy="240" r="0.5"/><circle cx="239.8" cy="240" r="0.5"/><circle cx="219.6" cy="240" r="0.5"/><circle cx="217.3" cy="240" r="0.5"/><circle cx="215.1" cy="240" r="0.5"/><circle cx="212.8" cy="240" r="0.5"/><circle cx="210.6" cy="240" r="0.5"/><circle cx="208.3" cy="240" r="0.5"/><circle cx="206.1" cy="240" r="0.5"/><circle cx="203.8" cy="240" r="0.5"/><circle cx="201.6" cy="240" r="0.5"/><circle cx="199.3" cy="240" r="0.5"/><circle cx="197.1" cy="240" r="0.5"/><circle cx="194.8" cy="240" r="0.5"/><circle cx="192.6" cy="240" r="0.5"/><circle cx="176.8" cy="240" r="0.5"/><circle cx="174.6" cy="240" r="0.5"/><circle cx="172.3" cy="240" r="0.5"/><circle cx="170.1" cy="240" r="0.5"/><circle cx="167.8" cy="240" r="0.5"/><circle cx="247.7" cy="241.6" r="0.5"/><circle cx="245.5" cy="241.6" r="0.5"/><circle cx="243.2" cy="241.6" r="0.5"/><circle cx="241" cy="241.6" r="0.5"/><circle cx="238.7" cy="241.6" r="0.5"/><circle cx="218.5" cy="241.6" r="0.5"/><circle cx="216.2" cy="241.6" r="0.5"/><circle cx="214" cy="241.6" r="0.5"/><circle cx="211.7" cy="241.6" r="0.5"/><circle cx="209.5" cy="241.6" r="0.5"/><circle cx="207.2" cy="241.6" r="0.5"/><circle cx="205" cy="241.6" r="0.5"/><circle cx="202.7" cy="241.6" r="0.5"/><circle cx="200.5" cy="241.6" r="0.5"/><circle cx="198.2" cy="241.6" r="0.5"/><circle cx="196" cy="241.6" r="0.5"/><circle cx="193.7" cy="241.6" r="0.5"/><circle cx="178" cy="241.6" r="0.5"/><circle cx="175.7" cy="241.6" r="0.5"/><circle cx="173.5" cy="241.6" r="0.5"/><circle cx="171.2" cy="241.6" r="0.5"/><circle cx="169" cy="241.6" r="0.5"/><circle cx="246.6" cy="243" r="0.5"/><circle cx="244.3" cy="243" r="0.5"/><circle cx="242.1" cy="243" r="0.5"/><circle cx="239.8" cy="243" r="0.5"/><circle cx="237.6" cy="243" r="0.5"/><circle cx="217.3" cy="243" r="0.5"/><circle cx="215.1" cy="243" r="0.5"/><circle cx="212.8" cy="243" r="0.5"/><circle cx="210.6" cy="243" r="0.5"/><circle cx="208.3" cy="243" r="0.5"/><circle cx="206.1" cy="243" r="0.5"/><circle cx="203.8" cy="243" r="0.5"/><circle cx="201.6" cy="243" r="0.5"/><circle cx="199.3" cy="243" r="0.5"/><circle cx="197.1" cy="243" r="0.5"/><circle cx="194.8" cy="243" r="0.5"/><circle cx="179.1" cy="243" r="0.5"/><circle cx="176.8" cy="243" r="0.5"/><circle cx="174.6" cy="243" r="0.5"/><circle cx="172.3" cy="243" r="0.5"/><circle cx="170.1" cy="243" r="0.5"/><circle cx="167.8" cy="243" r="0.5"/><circle cx="245.5" cy="244.6" r="0.5"/><circle cx="243.2" cy="244.6" r="0.5"/><circle cx="241" cy="244.6" r="0.5"/><circle cx="238.7" cy="244.6" r="0.5"/><circle cx="236.5" cy="244.6" r="0.5"/><circle cx="211.7" cy="244.6" r="0.5"/><circle cx="209.5" cy="244.6" r="0.5"/><circle cx="207.2" cy="244.6" r="0.5"/><circle cx="205" cy="244.6" r="0.5"/><circle cx="202.7" cy="244.6" r="0.5"/><circle cx="180.2" cy="244.6" r="0.5"/><circle cx="178" cy="244.6" r="0.5"/><circle cx="175.7" cy="244.6" r="0.5"/><circle cx="173.5" cy="244.6" r="0.5"/><circle cx="171.2" cy="244.6" r="0.5"/><circle cx="169" cy="244.6" r="0.5"/><circle cx="244.3" cy="246" r="0.5"/><circle cx="242.1" cy="246" r="0.5"/><circle cx="239.8" cy="246" r="0.5"/><circle cx="237.6" cy="246" r="0.5"/><circle cx="235.3" cy="246" r="0.5"/><circle cx="233.1" cy="246" r="0.5"/><circle cx="210.6" cy="246" r="0.5"/><circle cx="208.3" cy="246" r="0.5"/><circle cx="206.1" cy="246" r="0.5"/><circle cx="203.8" cy="246" r="0.5"/><circle cx="181.3" cy="246" r="0.5"/><circle cx="179.1" cy="246" r="0.5"/><circle cx="176.8" cy="246" r="0.5"/><circle cx="174.6" cy="246" r="0.5"/><circle cx="172.3" cy="246" r="0.5"/><circle cx="170.1" cy="246" r="0.5"/><circle cx="243.2" cy="247.6" r="0.5"/><circle cx="241" cy="247.6" r="0.5"/><circle cx="238.7" cy="247.6" r="0.5"/><circle cx="236.5" cy="247.6" r="0.5"/><circle cx="234.2" cy="247.6" r="0.5"/><circle cx="232" cy="247.6" r="0.5"/><circle cx="209.5" cy="247.6" r="0.5"/><circle cx="207.2" cy="247.6" r="0.5"/><circle cx="205" cy="247.6" r="0.5"/><circle cx="202.7" cy="247.6" r="0.5"/><circle cx="184.7" cy="247.6" r="0.5"/><circle cx="182.5" cy="247.6" r="0.5"/><circle cx="180.2" cy="247.6" r="0.5"/><circle cx="178" cy="247.6" r="0.5"/><circle cx="175.7" cy="247.6" r="0.5"/><circle cx="173.5" cy="247.6" r="0.5"/><circle cx="171.2" cy="247.6" r="0.5"/><circle cx="242.1" cy="249" r="0.5"/><circle cx="239.8" cy="249" r="0.5"/><circle cx="237.6" cy="249" r="0.5"/><circle cx="235.3" cy="249" r="0.5"/><circle cx="233.1" cy="249" r="0.5"/><circle cx="230.8" cy="249" r="0.5"/><circle cx="210.6" cy="249" r="0.5"/><circle cx="208.3" cy="249" r="0.5"/><circle cx="206.1" cy="249" r="0.5"/><circle cx="203.8" cy="249" r="0.5"/><circle cx="188.1" cy="249" r="0.5"/><circle cx="185.8" cy="249" r="0.5"/><circle cx="183.6" cy="249" r="0.5"/><circle cx="181.3" cy="249" r="0.5"/><circle cx="179.1" cy="249" r="0.5"/><circle cx="176.8" cy="249" r="0.5"/><circle cx="174.6" cy="249" r="0.5"/><circle cx="172.3" cy="249" r="0.5"/><circle cx="241" cy="250.6" r="0.5"/><circle cx="238.7" cy="250.6" r="0.5"/><circle cx="236.5" cy="250.6" r="0.5"/><circle cx="234.2" cy="250.6" r="0.5"/><circle cx="232" cy="250.6" r="0.5"/><circle cx="229.7" cy="250.6" r="0.5"/><circle cx="227.5" cy="250.6" r="0.5"/><circle cx="225.2" cy="250.6" r="0.5"/><circle cx="209.5" cy="250.6" r="0.5"/><circle cx="207.2" cy="250.6" r="0.5"/><circle cx="205" cy="250.6" r="0.5"/><circle cx="202.7" cy="250.6" r="0.5"/><circle cx="191.5" cy="250.6" r="0.5"/><circle cx="189.2" cy="250.6" r="0.5"/><circle cx="187" cy="250.6" r="0.5"/><circle cx="184.7" cy="250.6" r="0.5"/><circle cx="182.5" cy="250.6" r="0.5"/><circle cx="180.2" cy="250.6" r="0.5"/><circle cx="178" cy="250.6" r="0.5"/><circle cx="175.7" cy="250.6" r="0.5"/><circle cx="239.8" cy="252" r="0.5"/><circle cx="237.6" cy="252" r="0.5"/><circle cx="235.3" cy="252" r="0.5"/><circle cx="233.1" cy="252" r="0.5"/><circle cx="230.8" cy="252" r="0.5"/><circle cx="228.6" cy="252" r="0.5"/><circle cx="226.3" cy="252" r="0.5"/><circle cx="224.1" cy="252" r="0.5"/><circle cx="221.8" cy="252" r="0.5"/><circle cx="210.6" cy="252" r="0.5"/><circle cx="208.3" cy="252" r="0.5"/><circle cx="206.1" cy="252" r="0.5"/><circle cx="203.8" cy="252" r="0.5"/><circle cx="194.8" cy="252" r="0.5"/><circle cx="192.6" cy="252" r="0.5"/><circle cx="190.3" cy="252" r="0.5"/><circle cx="188.1" cy="252" r="0.5"/><circle cx="185.8" cy="252" r="0.5"/><circle cx="183.6" cy="252" r="0.5"/><circle cx="181.3" cy="252" r="0.5"/><circle cx="179.1" cy="252" r="0.5"/><circle cx="176.8" cy="252" r="0.5"/><circle cx="236.5" cy="253.6" r="0.5"/><circle cx="234.2" cy="253.6" r="0.5"/><circle cx="232" cy="253.6" r="0.5"/><circle cx="229.7" cy="253.6" r="0.5"/><circle cx="227.5" cy="253.6" r="0.5"/><circle cx="225.2" cy="253.6" r="0.5"/><circle cx="223" cy="253.6" r="0.5"/><circle cx="220.7" cy="253.6" r="0.5"/><circle cx="218.5" cy="253.6" r="0.5"/><circle cx="216.2" cy="253.6" r="0.5"/><circle cx="214" cy="253.6" r="0.5"/><circle cx="211.7" cy="253.6" r="0.5"/><circle cx="209.5" cy="253.6" r="0.5"/><circle cx="207.2" cy="253.6" r="0.5"/><circle cx="205" cy="253.6" r="0.5"/><circle cx="202.7" cy="253.6" r="0.5"/><circle cx="200.5" cy="253.6" r="0.5"/><circle cx="198.2" cy="253.6" r="0.5"/><circle cx="196" cy="253.6" r="0.5"/><circle cx="193.7" cy="253.6" r="0.5"/><circle cx="191.5" cy="253.6" r="0.5"/><circle cx="189.2" cy="253.6" r="0.5"/><circle cx="187" cy="253.6" r="0.5"/><circle cx="184.7" cy="253.6" r="0.5"/><circle cx="182.5" cy="253.6" r="0.5"/><circle cx="180.2" cy="253.6" r="0.5"/><circle cx="178" cy="253.6" r="0.5"/><circle cx="235.3" cy="255" r="0.5"/><circle cx="233.1" cy="255" r="0.5"/><circle cx="230.8" cy="255" r="0.5"/><circle cx="228.6" cy="255" r="0.5"/><circle cx="226.3" cy="255" r="0.5"/><circle cx="224.1" cy="255" r="0.5"/><circle cx="221.8" cy="255" r="0.5"/><circle cx="219.6" cy="255" r="0.5"/><circle cx="217.3" cy="255" r="0.5"/><circle cx="215.1" cy="255" r="0.5"/><circle cx="212.8" cy="255" r="0.5"/><circle cx="210.6" cy="255" r="0.5"/><circle cx="208.3" cy="255" r="0.5"/><circle cx="206.1" cy="255" r="0.5"/><circle cx="203.8" cy="255" r="0.5"/><circle cx="201.6" cy="255" r="0.5"/><circle cx="199.3" cy="255" r="0.5"/><circle cx="197.1" cy="255" r="0.5"/><circle cx="194.8" cy="255" r="0.5"/><circle cx="192.6" cy="255" r="0.5"/><circle cx="190.3" cy="255" r="0.5"/><circle cx="188.1" cy="255" r="0.5"/><circle cx="185.8" cy="255" r="0.5"/><circle cx="183.6" cy="255" r="0.5"/><circle cx="181.3" cy="255" r="0.5"/><circle cx="179.1" cy="255" r="0.5"/><circle cx="234.2" cy="256.6" r="0.5"/><circle cx="232" cy="256.6" r="0.5"/><circle cx="229.7" cy="256.6" r="0.5"/><circle cx="227.5" cy="256.6" r="0.5"/><circle cx="225.2" cy="256.6" r="0.5"/><circle cx="223" cy="256.6" r="0.5"/><circle cx="220.7" cy="256.6" r="0.5"/><circle cx="218.5" cy="256.6" r="0.5"/><circle cx="216.2" cy="256.6" r="0.5"/><circle cx="214" cy="256.6" r="0.5"/><circle cx="211.7" cy="256.6" r="0.5"/><circle cx="209.5" cy="256.6" r="0.5"/><circle cx="207.2" cy="256.6" r="0.5"/><circle cx="205" cy="256.6" r="0.5"/><circle cx="202.7" cy="256.6" r="0.5"/><circle cx="200.5" cy="256.6" r="0.5"/><circle cx="198.2" cy="256.6" r="0.5"/><circle cx="196" cy="256.6" r="0.5"/><circle cx="193.7" cy="256.6" r="0.5"/><circle cx="191.5" cy="256.6" r="0.5"/><circle cx="189.2" cy="256.6" r="0.5"/><circle cx="187" cy="256.6" r="0.5"/><circle cx="184.7" cy="256.6" r="0.5"/><circle cx="182.5" cy="256.6" r="0.5"/><circle cx="180.2" cy="256.6" r="0.5"/><circle cx="233.1" cy="258" r="0.5"/><circle cx="230.8" cy="258" r="0.5"/><circle cx="228.6" cy="258" r="0.5"/><circle cx="226.3" cy="258" r="0.5"/><circle cx="224.1" cy="258" r="0.5"/><circle cx="221.8" cy="258" r="0.5"/><circle cx="219.6" cy="258" r="0.5"/><circle cx="217.3" cy="258" r="0.5"/><circle cx="215.1" cy="258" r="0.5"/><circle cx="212.8" cy="258" r="0.5"/><circle cx="210.6" cy="258" r="0.5"/><circle cx="208.3" cy="258" r="0.5"/><circle cx="206.1" cy="258" r="0.5"/><circle cx="203.8" cy="258" r="0.5"/><circle cx="201.6" cy="258" r="0.5"/><circle cx="199.3" cy="258" r="0.5"/><circle cx="197.1" cy="258" r="0.5"/><circle cx="194.8" cy="258" r="0.5"/><circle cx="192.6" cy="258" r="0.5"/><circle cx="190.3" cy="258" r="0.5"/><circle cx="188.1" cy="258" r="0.5"/><circle cx="185.8" cy="258" r="0.5"/><circle cx="183.6" cy="258" r="0.5"/><circle cx="181.3" cy="258" r="0.5"/><circle cx="229.7" cy="259.6" r="0.5"/><circle cx="227.5" cy="259.6" r="0.5"/><circle cx="225.2" cy="259.6" r="0.5"/><circle cx="223" cy="259.6" r="0.5"/><circle cx="220.7" cy="259.6" r="0.5"/><circle cx="218.5" cy="259.6" r="0.5"/><circle cx="216.2" cy="259.6" r="0.5"/><circle cx="214" cy="259.6" r="0.5"/><circle cx="211.7" cy="259.6" r="0.5"/><circle cx="209.5" cy="259.6" r="0.5"/><circle cx="207.2" cy="259.6" r="0.5"/><circle cx="205" cy="259.6" r="0.5"/><circle cx="202.7" cy="259.6" r="0.5"/><circle cx="200.5" cy="259.6" r="0.5"/><circle cx="198.2" cy="259.6" r="0.5"/><circle cx="196" cy="259.6" r="0.5"/><circle cx="193.7" cy="259.6" r="0.5"/><circle cx="191.5" cy="259.6" r="0.5"/><circle cx="189.2" cy="259.6" r="0.5"/><circle cx="187" cy="259.6" r="0.5"/><circle cx="184.7" cy="259.6" r="0.5"/><circle cx="228.6" cy="261" r="0.5"/><circle cx="226.3" cy="261" r="0.5"/><circle cx="224.1" cy="261" r="0.5"/><circle cx="221.8" cy="261" r="0.5"/><circle cx="219.6" cy="261" r="0.5"/><circle cx="217.3" cy="261" r="0.5"/><circle cx="215.1" cy="261" r="0.5"/><circle cx="212.8" cy="261" r="0.5"/><circle cx="210.6" cy="261" r="0.5"/><circle cx="208.3" cy="261" r="0.5"/><circle cx="206.1" cy="261" r="0.5"/><circle cx="203.8" cy="261" r="0.5"/><circle cx="201.6" cy="261" r="0.5"/><circle cx="199.3" cy="261" r="0.5"/><circle cx="197.1" cy="261" r="0.5"/><circle cx="194.8" cy="261" r="0.5"/><circle cx="192.6" cy="261" r="0.5"/><circle cx="190.3" cy="261" r="0.5"/><circle cx="188.1" cy="261" r="0.5"/><circle cx="185.8" cy="261" r="0.5"/><circle cx="225.2" cy="262.6" r="0.5"/><circle cx="223" cy="262.6" r="0.5"/><circle cx="220.7" cy="262.6" r="0.5"/><circle cx="218.5" cy="262.6" r="0.5"/><circle cx="216.2" cy="262.6" r="0.5"/><circle cx="214" cy="262.6" r="0.5"/><circle cx="211.7" cy="262.6" r="0.5"/><circle cx="209.5" cy="262.6" r="0.5"/><circle cx="207.2" cy="262.6" r="0.5"/><circle cx="205" cy="262.6" r="0.5"/><circle cx="202.7" cy="262.6" r="0.5"/><circle cx="200.5" cy="262.6" r="0.5"/><circle cx="198.2" cy="262.6" r="0.5"/><circle cx="196" cy="262.6" r="0.5"/><circle cx="193.7" cy="262.6" r="0.5"/><circle cx="191.5" cy="262.6" r="0.5"/><circle cx="189.2" cy="262.6" r="0.5"/><circle cx="221.8" cy="264" r="0.5"/><circle cx="219.6" cy="264" r="0.5"/><circle cx="217.3" cy="264" r="0.5"/><circle cx="215.1" cy="264" r="0.5"/><circle cx="212.8" cy="264" r="0.5"/><circle cx="210.6" cy="264" r="0.5"/><circle cx="208.3" cy="264" r="0.5"/><circle cx="206.1" cy="264" r="0.5"/><circle cx="203.8" cy="264" r="0.5"/><circle cx="201.6" cy="264" r="0.5"/><circle cx="199.3" cy="264" r="0.5"/><circle cx="197.1" cy="264" r="0.5"/><circle cx="194.8" cy="264" r="0.5"/><circle cx="192.6" cy="264" r="0.5"/><circle cx="218.5" cy="265.6" r="0.5"/><circle cx="216.2" cy="265.6" r="0.5"/><circle cx="214" cy="265.6" r="0.5"/><circle cx="211.7" cy="265.6" r="0.5"/><circle cx="209.5" cy="265.6" r="0.5"/><circle cx="207.2" cy="265.6" r="0.5"/><circle cx="205" cy="265.6" r="0.5"/><circle cx="202.7" cy="265.6" r="0.5"/><circle cx="200.5" cy="265.6" r="0.5"/><circle cx="198.2" cy="265.6" r="0.5"/><circle cx="196" cy="265.6" r="0.5"/><circle cx="212.8" cy="267" r="0.5"/><circle cx="210.6" cy="267" r="0.5"/><circle cx="208.3" cy="267" r="0.5"/><circle cx="206.1" cy="267" r="0.5"/><circle cx="203.8" cy="267" r="0.5"/><circle cx="201.6" cy="267" r="0.5"/></g><path d="M235.9,216.8a115.84,115.84,0,0,1-13.6,4.8c-2.3.6-4.7,1.2-7,1.7a35.29,35.29,0,0,1-7.2.8,29.21,29.21,0,0,1-7.2-.6,42.31,42.31,0,0,1-7-1.8,77.33,77.33,0,0,1-13.2-5.7,80.58,80.58,0,0,0,13.3,5.4,55,55,0,0,0,7,1.7,34,34,0,0,0,7.1.5,57.42,57.42,0,0,0,7.1-.9q3.45-.75,6.9-1.8a102.35,102.35,0,0,0,13.4-5Z"/><path class="i" d="M234,214.5s3.3,1.5,3,3.3"/><g class="j"><path class="k" d="M177.9,142.2a6,6,0,1,1-9.3.6Z"/><circle class="c" cx="175.5" cy="146.3" r="1.3"/></g><g class="l"><path d="M233.1,142.2a6,6,0,1,0,9.3.6Z"/><circle class="c" cx="239.5" cy="146.3" r="1.3"/></g><path class="k" d="M215.2,136.5l4,.3s20.3-5.7,23.8-5.5c9.2.3,18.3,6.2,18.3,6.2l-2.5-5.2s-10.7-7.3-17-7S215.2,136.5,215.2,136.5Z"/><path class="k" d="M196.2,138.8l-4,.3s-20.3-5.7-23.8-5.5c-9.2.3-18.3,6.2-18.3,6.2l2.5-5.2s10.7-7.3,17-7S196.2,138.8,196.2,138.8Z"/><path class="b" d="M200,194.4c1.2.5,2.3,1.2,3.4,1.6a10.9,10.9,0,0,0,3.5.7,11.32,11.32,0,0,0,3.6-.6,14.68,14.68,0,0,0,3.4-1.5,9.37,9.37,0,0,1-3.2,2.3,10.06,10.06,0,0,1-3.9.8,8.27,8.27,0,0,1-3.8-1A20,20,0,0,1,200,194.4Z"/><path class="m" d="M212.2,216a8.53,8.53,0,0,1-2.5,1.3,5.36,5.36,0,0,1-2.8.2,8,8,0,0,1-2.6-.9,10.89,10.89,0,0,1-2.3-1.4,25.57,25.57,0,0,0,2.4,1.1,11.36,11.36,0,0,0,2.5.6,5.48,5.48,0,0,0,2.5-.4,7.43,7.43,0,0,0,2.1-1.3h0a.48.48,0,0,1,.7,0,.61.61,0,0,1,0,.8Z"/><path class="m" d="M215.8,231.1c-1.6.2-3.2.3-4.9.4a41,41,0,0,1-4.9-.2,40,40,0,0,1-4.8-.8,22,22,0,0,1-4.5-1.7,24.44,24.44,0,0,0,4.6,1.4,26.07,26.07,0,0,0,4.8.5,38.46,38.46,0,0,0,4.8-.1,35.49,35.49,0,0,0,4.7-.6h0c.3-.1.5.1.6.4s-.1.7-.4.7Z"/><path d="M194.6,179.6l4.1-18.2a56.93,56.93,0,0,0,1.5-9.2c.4-3.1-1.4-6.1-3.7-8.1a13.1,13.1,0,0,1,3,3.6,5.84,5.84,0,0,1,.8,2.2,9.34,9.34,0,0,1,.2,2.3,59.2,59.2,0,0,1-1.2,9.3l-3.6,18.3Z"/><path d="M189.3,149a45.28,45.28,0,0,0-7-4.3,15.65,15.65,0,0,0-3.8-1.4,18.41,18.41,0,0,0-4.1-.5,39,39,0,0,0-8.3.5,28.43,28.43,0,0,0-7.9,2.7,26.52,26.52,0,0,1,7.8-3.1,39.37,39.37,0,0,1,8.4-1,32.19,32.19,0,0,1,4.3.3,14,14,0,0,1,4.1,1.3,45.65,45.65,0,0,1,7.5,4.1Z"/><path d="M221,147.4a54.58,54.58,0,0,1,7.5-4.1,15.06,15.06,0,0,1,4.1-1.3,31.08,31.08,0,0,1,4.3-.3,40.15,40.15,0,0,1,8.4,1,37.31,37.31,0,0,1,7.8,3.1,36.85,36.85,0,0,0-7.9-2.7,38.21,38.21,0,0,0-8.3-.5,28.68,28.68,0,0,0-4.1.5,19.47,19.47,0,0,0-3.8,1.4,50.58,50.58,0,0,0-7,4.3Z"/><path d="M218.2,190.7a1,1,0,0,1,.7-.2l1.6.1a1,1,0,0,1,.7,1.7l-1.1,1.2a.55.55,0,0,1-.5.3l-7,1.7Z"/><path d="M196.5,190.7a1,1,0,0,0-.7-.2l-1.6.1a1,1,0,0,0-.7,1.7l1.1,1.2a.55.55,0,0,0,.5.3l7,1.7Z"/><path class="k" d="M221.8,182l1.4.3a6.61,6.61,0,0,1,1.5.5,4.36,4.36,0,0,1,1.9,2.5,7.58,7.58,0,0,1,.5,3,13.52,13.52,0,0,1-.5,2.9,9.38,9.38,0,0,1-1,2.8,5.24,5.24,0,0,1-1,1.1,8.26,8.26,0,0,1-1.3.7,52.23,52.23,0,0,1-5.6,1.8,51.44,51.44,0,0,0,5.5-2,8.27,8.27,0,0,0,1.3-.7,2.44,2.44,0,0,0,.9-1.1,8.6,8.6,0,0,0,.9-2.7,13.58,13.58,0,0,0,.3-2.9,8.76,8.76,0,0,0-.6-2.7,3.61,3.61,0,0,0-1.6-2,5,5,0,0,0-1.3-.4l-1.5-.2Z"/><path class="k" d="M188.4,187.6a19.68,19.68,0,0,0,.5,3.5,5.5,5.5,0,0,0,1.6,3,18.67,18.67,0,0,0,3.2,1.5c1.1.4,2.3.8,3.4,1.2-1.2-.3-2.3-.6-3.5-1a14.34,14.34,0,0,1-3.4-1.4,3.48,3.48,0,0,1-1.3-1.4,12.2,12.2,0,0,1-.7-1.7,15.28,15.28,0,0,1-.7-3.6Z"/><path class="n" d="M137.8,131.8s-1.7-11.1-2.9-18.6c0-.3-.1-.5-.1-.8,1.3-3.4-.7-7.4-.7-10.4v-.7a22.86,22.86,0,0,0,.5-10v-.8c.1-1.8.2-3.6.3-5.2v-.7c.1-3.6,2.1-6.6-.2-10.7a5.16,5.16,0,0,1-.2-1.1,17.32,17.32,0,0,1,.4-7.5,4.1,4.1,0,0,1-.1-1.1,14.79,14.79,0,0,1,1.7-7c.1-.2.1-.5.2-.7.4-1.6.8-3.1.8-3.1s.1-.4.2-1c.1-.3.1-.6.2-1-.9-3.5,1.1-6.5,4.6-8.6a3.11,3.11,0,0,0,.9-.7c2-2.2-.9-6.4,2.5-7.9l.8-.8c2.6-2.8,3.9-4.6,8.3-5.5a5.55,5.55,0,0,0,.8-.6c2.4-1.9,4.1-4.1,6.3-6.1a5,5,0,0,1,.8-.7c2.6-1.8,6.1-1.2,9-3.3a3.55,3.55,0,0,0,.9-.4c2.4-.9,4.6-1.7,7.4-1.2.3-.1.6-.3.9-.4,2-1.1,3.6-2.8,5.8-3.6l.9-.3a10.36,10.36,0,0,1,6.9.3l1-.3c1.9-.5,3.8-1.1,5.9-.5a1.85,1.85,0,0,0,.7-.2c1.1-.3,1.9-.5,1.9-.5h4.4s.8.2,1.9.5a6.37,6.37,0,0,0,.7.2,11.72,11.72,0,0,1,5.9.5c.3.1.6.2,1,.3a9.77,9.77,0,0,1,6.9-.3l.9.3c2.2.8,3.8,2.5,5.8,3.6a3.55,3.55,0,0,0,.9.4c2.7-.5,5,.3,7.4,1.2a3.55,3.55,0,0,1,.9.4c2.9,2,6.4,1.4,9,3.3a2.7,2.7,0,0,1,.8.7c2.3,2.1,4,4.3,6.3,6.1.3.2.5.4.8.6,4.5.9,5.7,2.7,8.3,5.5a6,6,0,0,0,.8.8c3.4,1.5.5,5.7,2.5,7.9a3.51,3.51,0,0,0,.9.7c3.5,2.1,5.5,5.1,4.6,8.6.1.4.1.7.2,1,.1.6.2,1,.2,1s.4,1.4.8,3.1c.1.2.1.5.2.7a13.46,13.46,0,0,1,1.7,7c0,.4-.1.7-.1,1.1a19,19,0,0,1,.4,7.5c-.1.4-.1.8-.2,1.1-2.3,4.1-.3,7.1-.2,10.7v.7c.1,1.6.2,3.4.3,5.2v.8a26.52,26.52,0,0,0,.5,10v.7c0,3.1-2,7.1-.7,10.4,0,.2-.1.5-.1.8-1.2,7.6-2.9,18.6-2.9,18.6l-.1,3.5-4,5.3-2.5-21s-2.8,2-2.8,1a13.58,13.58,0,0,1,.1-1.5c0-.3.1-.6.1-.9,1.5-3.1.5-7.1,1.3-10.2,0-.3.1-.7.1-1,.2-2.3.3-4.6.4-7,0-.3.1-.5.1-.8a59.78,59.78,0,0,0,.9-8.7,2.2,2.2,0,0,1,.1-.8c.6-6,1-10.5,1-10.5l-6.3.3s-1.6-2.1-3-3.9a2.09,2.09,0,0,1-.4-.6c-.8-2.5-2.2-3-3.9-3a3.4,3.4,0,0,0-1,.1C251,74,248,72,245.1,70a2.77,2.77,0,0,0-.9.1c-2.4.2-4.8.4-7.1-1.8-.3-.1-.7-.1-1.2-.2-1.4-.1-3.2-.2-4.7-.3h-.7a66.64,66.64,0,0,0-6.7.8c-.3.1-.7.2-1,.3a34.39,34.39,0,0,1-7.8,3.5,3,3,0,0,1-1,.2c-2.5.2-5.2.6-8,.6h-1.2c-2.7,1.3-4.4.2-6.7-1a9.29,9.29,0,0,0-1-.5c-2.6-2.2-5.9-2.6-9-3.2-.3-.1-.6-.1-.9-.2-3-.2-5.7-.3-8.2-.3h-1.1c-3.2-.1-6.6,2-9.6,3l-.9.3a7.26,7.26,0,0,1-4.2,1.7c-.4,0-.7.1-1.1.1-1.2-.1-2.2-.1-3.2-.1h-1c-2.8,0-4.6,1.4-6.2,3.1l-.7.7c-1,4.2-5,4.2-8,2.2a7.77,7.77,0,0,1-.3,2.4c0,.3.1.6.1.9s.1.6.1.9.1.7.1,1c0,5.8,0,12.8,1.9,18.8,0,.3.1.5.1.8.1,5.2.1,11.2,1.6,16.7,0,.3-.2.3-.4.3a2.26,2.26,0,0,1-.9-.4c-.1-.4-1.1-.4-1.5-.2,0,.2-.1.5-.1.8-.6,4.9-2.3,19.4-2.3,19.4l-4-5.3Z"/><g class="o"><path class="c" d="M211.5,132.2a31.36,31.36,0,0,1,2.6-9.4,22.7,22.7,0,0,1,6-7.8,24.88,24.88,0,0,1,8.8-4.3c3.1-1,6.2-1.9,9.4-2.8s6.4-1.5,9-3.3a10.74,10.74,0,0,0,3.2-3.5l2.3-4.3c1.5-2.9,3.2-5.7,4.7-8.6a77.5,77.5,0,0,0,3.9-8.9h0l5.6-4.8,2.8-2.4a31.9,31.9,0,0,0,2.6-2.6,42.23,42.23,0,0,0,4.7-5.6,22.59,22.59,0,0,0,3.2-6.4v-.2a8.69,8.69,0,0,0,1.1-3.2c.2-1.1.3-2.3.4-3.5.1-2.4.2-4.8.2-7.2s-.5-4.7-.6-7.1a44.14,44.14,0,0,1-.3-7.3c.3-2.5.9-4.8,1.2-7.1.2-1.2.2-2.4.3-3.6l.3-3.6.2-3.6c.1-1.2.1-2.4.3-3.6A55.53,55.53,0,0,1,284.7.4h.1c-.4,2.4-.8,4.7-1,7.1s-.2,4.8-.3,7.2l-.2,3.6c-.1,1.2-.1,2.4-.3,3.6-.3,2.4-.8,4.8-1,7.1s.3,4.7.4,7.1.6,4.7.6,7.2,0,4.8-.1,7.2a22.27,22.27,0,0,1-.5,3.6,11.42,11.42,0,0,1-1.3,3.5l.1-.1a23.52,23.52,0,0,1-3.4,6.7,43.68,43.68,0,0,1-4.9,5.6c-.9.9-1.8,1.7-2.7,2.5l-2.9,2.4-5.7,4.7.1-.1c-1.2,3-2.6,6-4.1,8.9s-3.1,5.7-4.6,8.6l-2.2,4.3a9.83,9.83,0,0,1-3.3,3.7,16.48,16.48,0,0,1-4.4,2.2c-1.6.5-3.1,1-4.7,1.4l-9.3,2.8a24.42,24.42,0,0,0-8.6,4.1,21.77,21.77,0,0,0-6,7.4,34.85,34.85,0,0,0-3,9.5Z"/><path class="c" d="M210.5,131.9a28.49,28.49,0,0,1,2.4-9.1,21.51,21.51,0,0,1,5.7-7.7,25.53,25.53,0,0,1,8.5-4.4c3-1,6-1.9,9-2.8s6.2-1.5,8.7-3.3,3.7-4.9,5.2-7.6,3-5.5,4.4-8.4a84.15,84.15,0,0,0,3.7-8.7h0l5.4-4.8,2.7-2.4c.9-.8,1.7-1.7,2.5-2.5a47,47,0,0,0,4.5-5.5,22.74,22.74,0,0,0,3-6.3h0v-.1a9,9,0,0,0,.9-3.3c.2-1.2.2-2.4.3-3.6V44.2c0-2.3-.7-4.7-.9-7.1s-.9-4.8-.7-7.3.8-4.8,1.1-7.2a57.81,57.81,0,0,0,.3-7.2V11.8c0-1.2,0-2.4.1-3.6a59.33,59.33,0,0,1,1-7.2h.1a58.48,58.48,0,0,0-.7,7.2c-.1,1.2,0,2.4,0,3.6l.1,3.6a44.49,44.49,0,0,1-.1,7.3c-.2,2.4-.8,4.8-.9,7.1a59.35,59.35,0,0,0,.8,7.1c.2,2.4.8,4.7.9,7.2s.1,4.8,0,7.3a24,24,0,0,1-.3,3.7,11.55,11.55,0,0,1-1.1,3.6v-.1a25.23,25.23,0,0,1-3.2,6.6,41.33,41.33,0,0,1-4.7,5.5c-.9.9-1.7,1.7-2.6,2.5l-2.8,2.3-5.5,4.7.1-.1c-1.2,2.9-2.4,5.8-3.8,8.7s-2.9,5.6-4.3,8.4l-2.1,4.3a11,11,0,0,1-3.1,3.7,14.6,14.6,0,0,1-4.3,2.2c-1.5.5-3,1-4.5,1.4l-9,2.8a23.27,23.27,0,0,0-8.3,4.2,21.56,21.56,0,0,0-5.7,7.3,36.2,36.2,0,0,0-2.8,8.8Z"/><path class="c" d="M209.6,131.6a27.85,27.85,0,0,1,2.3-8.9,20.93,20.93,0,0,1,5.3-7.5,23.08,23.08,0,0,1,8.1-4.5c2.9-1.1,5.8-2,8.7-2.9s5.9-1.6,8.4-3.4,3.4-4.8,4.9-7.5,2.8-5.4,4.2-8.2,2.5-5.6,3.5-8.4h0l5.2-4.8,2.6-2.4c.8-.8,1.6-1.7,2.4-2.5a32.59,32.59,0,0,0,4.3-5.5,23.41,23.41,0,0,0,2.9-6.2h0a12.07,12.07,0,0,0,.7-3.4c.1-1.2.1-2.4.1-3.6-.1-2.4-.1-4.9-.2-7.3s-.9-4.7-1.2-7.1-1.2-4.7-1.2-7.3.7-4.9.9-7.3a34.65,34.65,0,0,0,0-7.2,59.53,59.53,0,0,1-.4-7.3,60.08,60.08,0,0,1,.7-7.3h.1a44.08,44.08,0,0,0-.4,7.3,61.54,61.54,0,0,0,.6,7.3,30.43,30.43,0,0,1,.2,7.4c-.2,2.4-.7,4.9-.8,7.2s.8,4.7,1.2,7.1,1.1,4.7,1.2,7.3.2,4.9.2,7.3a23,23,0,0,1-.2,3.7,10,10,0,0,1-.9,3.7v-.1a20.47,20.47,0,0,1-3.1,6.5,40,40,0,0,1-4.5,5.5l-2.5,2.5-2.6,2.3L255,80.7l.1-.1Q253.45,85,251.5,89c-1.3,2.8-2.8,5.5-4.1,8.2l-1.9,4.2a9.38,9.38,0,0,1-2.9,3.7,16.23,16.23,0,0,1-4.1,2.2c-1.5.5-2.9,1-4.4,1.5l-4.3,1.4c-1.5.5-2.9.9-4.3,1.4a25,25,0,0,0-7.9,4.2,21.33,21.33,0,0,0-5.4,7.2,35.69,35.69,0,0,0-2.6,8.6Z"/><path class="c" d="M206.8,130.8c.4-5.5,2.2-11.1,6-15.3a19.65,19.65,0,0,1,7-4.7c2.6-1.1,5.1-2.1,7.7-3.1s5.3-1.7,7.4-3.4a8,8,0,0,0,2.2-3.2l1.7-3.8a138.08,138.08,0,0,0,6.3-15.4h0c2.5-2.6,5.1-5.1,7.6-7.7a35.54,35.54,0,0,0,6.1-8.8,15,15,0,0,0,1.4-5,31.33,31.33,0,0,0-.2-5.3l-.3-2.7-.3-2.7c-.1-.9-.1-1.7-.3-2.7a23.36,23.36,0,0,0-.4-2.6c-.4-1.7-1.2-3.3-1.7-5.1-.6-1.6-1.4-3.3-1.9-5.1a8.68,8.68,0,0,1-.5-2.8,24.59,24.59,0,0,1,.2-2.8c.2-1.8.4-3.6.5-5.4.2-3.6-1.2-6.9-2.3-10.4A32.77,32.77,0,0,1,252.4,2h.1a38.49,38.49,0,0,0,1,10.7c.5,1.7,1.2,3.4,1.7,5.1a19.6,19.6,0,0,1,.8,5.4c0,1.8-.2,3.6-.3,5.4a23.48,23.48,0,0,0-.1,2.6,7.42,7.42,0,0,0,.5,2.5,52.08,52.08,0,0,0,2,5c.5,1.7,1.3,3.3,1.8,5.2a13.5,13.5,0,0,1,.4,2.8l.1,1.3a6.6,6.6,0,0,0,.1,1.4l.2,2.7.3,2.7a33.33,33.33,0,0,1,.2,5.5,14.17,14.17,0,0,1-1.6,5.3,37.48,37.48,0,0,1-6.4,8.8c-2.5,2.6-5.2,5.1-7.7,7.6v-.1c-.9,2.6-1.9,5.2-2.9,7.8s-2.2,5.1-3.2,7.7l-1.5,3.9a9.24,9.24,0,0,1-2.3,3.6,11.41,11.41,0,0,1-3.7,2.1l-3.9,1.5c-2.6,1.1-5.2,2-7.7,3.1a22.11,22.11,0,0,0-6.8,4.4,21.43,21.43,0,0,0-4.4,6.9,35.83,35.83,0,0,0-2.3,7.9Z"/><path class="c" d="M203.2,129.7a26.47,26.47,0,0,1,4.1-13.7,16.87,16.87,0,0,1,5.4-4.9c2.1-1.3,4.2-2.3,6.3-3.5,1.1-.6,2.1-1.1,3.2-1.6a8.15,8.15,0,0,0,2.8-1.9,6.71,6.71,0,0,0,.9-1.4c.2-.5.4-1.1.6-1.7l1.1-3.4,2.4-6.8c.8-2.3,1.5-4.6,2.2-6.9h0l3.8-4.5,1.9-2.2c.6-.8,1.2-1.5,1.8-2.3a25,25,0,0,0,2.9-5,20.51,20.51,0,0,0,1.6-5.5v.1c-.4-2.7-1.1-5.3-1.7-7.9-.3-1.3-.6-2.6-.8-4-.1-.7-.1-1.4-.2-2s-.3-1.3-.4-2a10.05,10.05,0,0,0-1.2-3.7c-.6-1.1-1.4-2.3-2.1-3.5-1.4-2.2-3.4-4.3-4.1-7.2a20,20,0,0,1-.2-4.2c.1-1.4.2-2.7.2-4.1a16.66,16.66,0,0,0-.4-3.9,10.76,10.76,0,0,0-1.7-3.6c-.7-1.1-1.5-2.2-2.2-3.4a18,18,0,0,1-1.6-3.8,31.63,31.63,0,0,1-1.1-8.1h.1a31.24,31.24,0,0,0,1.4,8,14.88,14.88,0,0,0,1.7,3.6c.7,1.1,1.6,2.2,2.4,3.3a10.61,10.61,0,0,1,1.8,3.7,20.31,20.31,0,0,1,.6,4.1c0,1.4,0,2.7-.1,4.1a16.73,16.73,0,0,0,.2,3.9,12.25,12.25,0,0,0,1.6,3.5c.7,1.1,1.6,2.2,2.3,3.4s1.5,2.3,2.1,3.5a9.44,9.44,0,0,1,1.3,4c.1.7.2,1.2.3,2s.1,1.4.2,2c.2,1.3.5,2.6.8,4,.6,2.7,1.2,5.3,1.6,8v.2a19,19,0,0,1-1.8,5.7,32.08,32.08,0,0,1-3.1,5c-1.2,1.6-2.5,3-3.7,4.5L232.6,84v-.1c-1.3,4.6-2.8,9.2-4.3,13.8l-1,3.5c-.2.6-.3,1.1-.5,1.8a4.25,4.25,0,0,1-1,1.7,11,11,0,0,1-3.1,2.2c-1.1.5-2.1,1.1-3.2,1.7-4.2,2.2-8.8,4.1-11.6,8a21.75,21.75,0,0,0-3.1,6.3,25,25,0,0,0-1.6,6.8Z"/><path class="c" d="M202.2,129.4a26.15,26.15,0,0,1,3.7-13.3,15.91,15.91,0,0,1,5-5c1.9-1.3,4-2.4,6-3.6,1-.6,2-1.2,3-1.7a7.31,7.31,0,0,0,2.6-1.9c.7-.8.8-1.9,1.2-3l1-3.3c1.4-4.4,2.9-8.8,4.1-13.2h0c1.2-1.5,2.4-2.9,3.6-4.4a48.27,48.27,0,0,0,3.4-4.5,29.58,29.58,0,0,0,2.8-4.9,19.52,19.52,0,0,0,1.4-5.4v.1l-2.1-8.1c-.3-1.3-.7-2.7-.9-4.1l-.3-2.1c-.1-.6-.3-1.4-.4-2.1a10.25,10.25,0,0,0-1.3-3.7c-.7-1.1-1.6-2.3-2.3-3.4-1.6-2.1-3.7-4.3-4.5-7.2-.6-2.9-.1-5.7-.1-8.4a13.31,13.31,0,0,0-.5-4,11.91,11.91,0,0,0-1.9-3.5c-.8-1.1-1.7-2.1-2.5-3.3a14.65,14.65,0,0,1-1.8-3.8,29.22,29.22,0,0,1-1.3-8.2h.1a27.86,27.86,0,0,0,1.7,8.1,15.47,15.47,0,0,0,1.9,3.6c.8,1.1,1.8,2.1,2.6,3.2a13.59,13.59,0,0,1,2.1,3.7,15.39,15.39,0,0,1,.7,4.2v4.2a17.31,17.31,0,0,0,.2,4,9.73,9.73,0,0,0,1.8,3.5c.8,1.1,1.7,2.1,2.5,3.3s1.6,2.2,2.3,3.5a9.53,9.53,0,0,1,1.4,4.1,14.16,14.16,0,0,0,.4,2c.1.7.1,1.4.2,2.1.2,1.3.6,2.7.9,4l1.9,8.1v.2a21.68,21.68,0,0,1-4.5,10.4l-1.7,2.3-1.8,2.2c-1.2,1.5-2.4,2.9-3.6,4.4v-.1c-1.2,4.5-2.5,8.9-3.8,13.3l-.9,3.3-.4,1.7a8.86,8.86,0,0,1-.8,1.7,10.13,10.13,0,0,1-2.9,2.2c-1,.5-2,1.1-3,1.7-4,2.3-8.3,4.3-10.8,8.1a23.41,23.41,0,0,0-2.9,6.2,33.19,33.19,0,0,0-1.5,6.8Z"/><path class="c" d="M199.5,128.6a28.15,28.15,0,0,1,2.4-12.1,16.69,16.69,0,0,1,3.7-5c1.5-1.4,3.2-2.6,4.8-3.9.8-.6,1.6-1.3,2.5-1.9a5.46,5.46,0,0,0,2-2,3.19,3.19,0,0,0,.3-1.4l.3-1.5c.2-1,.3-2,.6-3l2.9-12h0l3-4.3c1-1.4,2-2.9,2.9-4.4a20.16,20.16,0,0,0,2.2-4.7,17,17,0,0,0,.8-5.1v.1c-1.2-2.7-2.2-5.5-3.2-8.3a30.56,30.56,0,0,1-1.3-4.3,16.61,16.61,0,0,1-.3-2.2c-.1-.3-.2-.7-.3-1.1a5.16,5.16,0,0,1-.2-1.1,7.73,7.73,0,0,0-1.7-3.8,22.06,22.06,0,0,0-2.9-3.2c-1.1-1-2.2-2-3.2-3.1a11.12,11.12,0,0,1-2.4-3.9,18.51,18.51,0,0,1-.5-4.6c0-1.5,0-3-.1-4.4a14.23,14.23,0,0,0-.8-4.2,9.1,9.1,0,0,0-2.5-3.4c-1.1-1-2.3-1.9-3.3-3a13.91,13.91,0,0,1-2.5-3.8,23.64,23.64,0,0,1-2.1-8.7h.1a28.42,28.42,0,0,0,2.4,8.5,17.83,17.83,0,0,0,2.5,3.6c1,1,2.2,1.9,3.3,2.9a11,11,0,0,1,2.8,3.6,14,14,0,0,1,1,4.5c.1,1.5.1,3,.1,4.5a14.93,14.93,0,0,0,.5,4.3,11.27,11.27,0,0,0,2.2,3.6c1,1.1,2.1,2,3.2,3.1a33.09,33.09,0,0,1,3,3.4,9.65,9.65,0,0,1,1.8,4.3,3,3,0,0,0,.2,1c.1.3.2.7.3,1.1a19.19,19.19,0,0,1,.3,2.2,33.11,33.11,0,0,0,1.2,4.2q1.35,4.2,3,8.4v.2a15.48,15.48,0,0,1-1,5.2,25.6,25.6,0,0,1-2.3,4.7c-.9,1.5-1.9,2.9-2.9,4.4l-2.9,4.3v-.1l-2.5,12.1-.6,3-.3,1.5a4.71,4.71,0,0,1-.4,1.6,3.59,3.59,0,0,1-1,1.4,6.42,6.42,0,0,1-1.3,1c-.9.6-1.6,1.2-2.5,1.8a57.12,57.12,0,0,0-4.8,3.8,15.42,15.42,0,0,0-3.7,4.7,30.4,30.4,0,0,0-2.8,11.5Z"/><path class="c" d="M198.5,128.3a29.16,29.16,0,0,1,2-11.7,15.56,15.56,0,0,1,3.3-5c1.4-1.4,2.9-2.7,4.4-4,.8-.6,1.5-1.3,2.3-1.9a4.58,4.58,0,0,0,1.7-2,5.9,5.9,0,0,0,.2-1.4l.2-1.5a25,25,0,0,1,.5-2.9l2.5-11.6h0l2.8-4.3c.9-1.4,1.9-2.8,2.7-4.3a20.69,20.69,0,0,0,2-4.6,13.75,13.75,0,0,0,.6-4.9v.1a88.4,88.4,0,0,1-3.6-8.4,32.21,32.21,0,0,1-1.4-4.4c-.2-.8-.2-1.6-.4-2.2-.1-.3-.2-.7-.3-1.1a5,5,0,0,1-.2-1.2,8.68,8.68,0,0,0-1.8-3.9,23.45,23.45,0,0,0-3.1-3.2,32.83,32.83,0,0,1-3.4-3.1,9.93,9.93,0,0,1-2.6-4,18.93,18.93,0,0,1-.6-4.7c0-1.5,0-3-.1-4.5a10.82,10.82,0,0,0-1-4.3,11,11,0,0,0-2.7-3.4c-1.1-1-2.4-1.8-3.5-2.9a14.58,14.58,0,0,1-2.7-3.8A23,23,0,0,1,194,4.4h.1a25.42,25.42,0,0,0,2.7,8.6,13.12,13.12,0,0,0,2.7,3.5c1.1,1,2.4,1.8,3.6,2.8a8.82,8.82,0,0,1,3,3.6,12,12,0,0,1,1.1,4.6c.1,1.5.1,3.1.1,4.6a21.19,21.19,0,0,0,.5,4.4,11.94,11.94,0,0,0,2.4,3.6c1,1.1,2.2,2,3.3,3a25.76,25.76,0,0,1,3.2,3.4,9.7,9.7,0,0,1,1.9,4.4c.1.4.1.7.2,1.1s.2.7.3,1.1a18.11,18.11,0,0,1,.3,2.3,35.17,35.17,0,0,0,1.3,4.3,87.8,87.8,0,0,0,3.3,8.5v.1h0a18.07,18.07,0,0,1-.8,5.1,24,24,0,0,1-2.1,4.6c-1.7,2.9-3.6,5.7-5.3,8.6v-.1L214.1,98c-.2,1-.3,1.9-.5,2.9l-.2,1.5c-.1.5-.1,1-.2,1.5a2.63,2.63,0,0,1-.9,1.4,10.59,10.59,0,0,1-1.2,1c-.8.6-1.5,1.3-2.3,1.9-1.5,1.3-3,2.5-4.4,3.9a15.38,15.38,0,0,0-3.3,4.7,35.56,35.56,0,0,0-2.6,11.5Z"/><path class="c" d="M196.7,127.8a30.8,30.8,0,0,1,1.3-10.9,18,18,0,0,1,2.5-5c1.1-1.5,2.4-2.8,3.6-4.2l1.8-2.1a7,7,0,0,0,.8-1,1.8,1.8,0,0,0,.3-1.1c0-.9.1-1.8.1-2.7l.1-1.4.2-1.4c.5-3.6,1.2-7.2,1.7-10.9h0c1.6-2.8,3.2-5.6,4.7-8.4a18.2,18.2,0,0,0,1.7-4.4,14.72,14.72,0,0,0,.3-4.7v.1a69,69,0,0,1-4.3-8.6,31.24,31.24,0,0,1-1.7-4.6,22.3,22.3,0,0,1-.4-2.3c-.1-.3-.3-.7-.4-1.1l-.3-1.2a8.91,8.91,0,0,0-2-4,16.82,16.82,0,0,0-3.5-3,35.8,35.8,0,0,1-3.9-2.9,12,12,0,0,1-3-4,17.06,17.06,0,0,1-.7-4.9c-.1-1.6-.1-3.2-.2-4.8a12.45,12.45,0,0,0-1.2-4.4,8.92,8.92,0,0,0-3.2-3.2c-1.3-.9-2.7-1.7-4-2.7a12.25,12.25,0,0,1-3.1-3.7A23.11,23.11,0,0,1,181,5.2h.1a25.69,25.69,0,0,0,3.2,8.9,14.71,14.71,0,0,0,3.1,3.5,39.37,39.37,0,0,0,4,2.6,9.06,9.06,0,0,1,3.5,3.5,13.39,13.39,0,0,1,1.4,4.7c.2,1.6.2,3.2.3,4.8a17,17,0,0,0,.7,4.6,10.67,10.67,0,0,0,2.7,3.6,26.29,26.29,0,0,0,3.7,2.9,19.06,19.06,0,0,1,3.7,3.3,9.52,9.52,0,0,1,2.2,4.5c.1.4.1.8.2,1.1s.3.7.4,1.1c.2.9.2,1.6.4,2.4a26.4,26.4,0,0,0,1.5,4.5,61.38,61.38,0,0,0,4,8.6h0a19.09,19.09,0,0,1-.3,4.8,22,22,0,0,1-1.7,4.5c-.7,1.4-1.5,2.8-2.3,4.2l-2.2,4.2v-.1c-.5,3.6-.9,7.2-1.4,10.9l-.2,1.4-.1,1.4c0,.9-.1,1.8-.1,2.7a2.49,2.49,0,0,1-.1.8,1.61,1.61,0,0,1-.4.7,10.63,10.63,0,0,1-.9,1.1c-.6.7-1.2,1.4-1.8,2-1.2,1.4-2.5,2.7-3.6,4.1a16.61,16.61,0,0,0-2.6,4.7,40.52,40.52,0,0,0-1.7,10.6Z"/><path class="c" d="M195.8,127.5a31,31,0,0,1,1-10.5,18,18,0,0,1,2.2-4.9c1-1.5,2.1-2.8,3.1-4.3l1.6-2.1c.3-.4.5-.7.7-1a1.33,1.33,0,0,0,.1-1.1,24.32,24.32,0,0,1,0-2.7c0-.9.1-1.8.1-2.7.3-3.5.8-7,1.4-10.5v-.1h0c1.4-2.8,2.9-5.5,4.3-8.3a16.34,16.34,0,0,0,1.5-4.4,14.21,14.21,0,0,0,.1-4.6v.1a60.39,60.39,0,0,1-4.6-8.7,25.81,25.81,0,0,1-1.8-4.6c-.2-.8-.3-1.7-.5-2.4-.1-.3-.3-.7-.4-1.1l-.3-1.2a8.68,8.68,0,0,0-2.2-4.1,21.14,21.14,0,0,0-3.7-3,38.08,38.08,0,0,1-4.1-2.9,11.35,11.35,0,0,1-3.2-4,18,18,0,0,1-.8-5c-.1-1.6-.1-3.3-.3-4.9a11.69,11.69,0,0,0-1.3-4.5,9.52,9.52,0,0,0-3.4-3.2,36.57,36.57,0,0,1-4.2-2.6,12.93,12.93,0,0,1-3.3-3.7,24,24,0,0,1-3.2-9.3h.1a24.16,24.16,0,0,0,3.5,9,13.34,13.34,0,0,0,3.3,3.4c1.3.9,2.8,1.6,4.2,2.5a10.29,10.29,0,0,1,3.8,3.4,12.21,12.21,0,0,1,1.5,4.8c.2,1.7.2,3.3.3,4.9a17.78,17.78,0,0,0,.7,4.7,10.05,10.05,0,0,0,2.9,3.6,21.39,21.39,0,0,0,3.9,2.8,17.08,17.08,0,0,1,3.9,3.2A9.69,9.69,0,0,1,205,52c.1.4.1.8.2,1.2a8.34,8.34,0,0,1,.4,1.2c.2.9.2,1.7.4,2.4a25.06,25.06,0,0,0,1.6,4.6,54.59,54.59,0,0,0,4.4,8.7h0a14.77,14.77,0,0,1-.1,4.7,19.83,19.83,0,0,1-1.5,4.5l-4.1,8.4v-.1c-.5,3.5-.9,7-1.1,10.5a22.6,22.6,0,0,0-.1,2.6V104a2.35,2.35,0,0,1-.2.8,8.34,8.34,0,0,1-.8,1.2l-1.6,2.1c-1,1.4-2.2,2.8-3.1,4.2a15.58,15.58,0,0,0-2.2,4.7,47.32,47.32,0,0,0-1.4,10.5Z"/><path class="c" d="M193.9,127a36.56,36.56,0,0,1,.4-9.9,22.15,22.15,0,0,1,1.5-4.8c.7-1.5,1.5-2.9,2.2-4.4.3-.7.7-1.5,1-2.2a9.25,9.25,0,0,0,.3-1,4.33,4.33,0,0,1-.1-.5l-.1-.6a28,28,0,0,1-.3-5,82.36,82.36,0,0,1,.7-9.9v-.1h0l3.5-8.2a16.6,16.6,0,0,0,1.2-4.2,10.94,10.94,0,0,0-.3-4.4v.1a49.8,49.8,0,0,1-5.3-8.9,40.45,40.45,0,0,1-2-4.8c-.3-.8-.3-1.8-.5-2.5a7.25,7.25,0,0,1-.5-1.2c-.1-.4-.2-.9-.3-1.3a8.9,8.9,0,0,0-2.4-4.2,14.22,14.22,0,0,0-4.1-2.8,30.5,30.5,0,0,1-4.5-2.8,12.21,12.21,0,0,1-3.5-4,19.87,19.87,0,0,1-1-5.2c-.1-1.7-.2-3.4-.4-5.1a10.12,10.12,0,0,0-1.6-4.6,8.65,8.65,0,0,0-3.8-3,50.63,50.63,0,0,1-4.6-2.4,14.83,14.83,0,0,1-3.8-3.7,22.63,22.63,0,0,1-3.7-9.6h.1a22.32,22.32,0,0,0,4.1,9.3,13.29,13.29,0,0,0,3.7,3.4,49.3,49.3,0,0,0,4.6,2.3,9.48,9.48,0,0,1,4.2,3.2,10.46,10.46,0,0,1,1.8,5,45.5,45.5,0,0,1,.4,5.2,15.77,15.77,0,0,0,.9,4.9,11.28,11.28,0,0,0,3.2,3.7,31.21,31.21,0,0,0,4.3,2.7,13.93,13.93,0,0,1,4.3,3,9.53,9.53,0,0,1,2.6,4.7,5.27,5.27,0,0,0,.3,1.2,10.41,10.41,0,0,0,.5,1.2c.2.9.3,1.7.5,2.6a31.23,31.23,0,0,0,1.8,4.8,48.88,48.88,0,0,0,5.1,8.9h0a13.68,13.68,0,0,1,.3,4.5,16,16,0,0,1-1.1,4.3L200.3,89v-.1c-.3,3.3-.5,6.5-.5,9.8a37.49,37.49,0,0,0,.3,4.8l.1.6c0,.2.1.4.1.7a5,5,0,0,1-.3,1.3c-.3.8-.7,1.5-1,2.3-.7,1.5-1.5,3-2.3,4.4a22.71,22.71,0,0,0-1.6,4.6,33.71,33.71,0,0,0-1.2,9.6Z"/><path class="c" d="M193,126.7a38.85,38.85,0,0,1,.4-11.3,24.7,24.7,0,0,1,1.9-5.4,27.73,27.73,0,0,0,1-2.6c.1-.4.3-.9.4-1.3a5.28,5.28,0,0,0,.1-1.3v.2a10.37,10.37,0,0,1-.4-1c-.1-.3-.2-.7-.3-1-.1-.7-.2-1.3-.3-2-.1-1.3-.2-2.6-.2-3.9a67.93,67.93,0,0,1,.4-7.8v-.1h0l1.5-4.1,1.6-4a14.48,14.48,0,0,0,1-4.1,12.1,12.1,0,0,0-.5-4.2v.1a49,49,0,0,1-5.7-9,26.78,26.78,0,0,1-2.1-4.9c-.3-.9-.3-1.8-.6-2.6-.1-.4-.4-.7-.5-1.2s-.2-.9-.3-1.3a7.51,7.51,0,0,0-2.6-4.2,9.51,9.51,0,0,0-2-1.5,16.65,16.65,0,0,0-2.3-1.2,26.41,26.41,0,0,1-4.6-2.7,12.25,12.25,0,0,1-3.7-4.1,14.73,14.73,0,0,1-1-5.4,43.63,43.63,0,0,0-.5-5.2,11.24,11.24,0,0,0-1.8-4.7,8.33,8.33,0,0,0-4-2.9,42.28,42.28,0,0,1-4.8-2.3,15.22,15.22,0,0,1-4-3.6,22.18,22.18,0,0,1-4-9.8h.1a25.58,25.58,0,0,0,4.3,9.5,14.07,14.07,0,0,0,3.9,3.4,35.09,35.09,0,0,0,4.8,2.2,11.4,11.4,0,0,1,4.5,3.1,10.74,10.74,0,0,1,2,5.1c.3,1.8.3,3.6.5,5.3a13.93,13.93,0,0,0,1,5,10.64,10.64,0,0,0,3.3,3.7,39.92,39.92,0,0,0,4.4,2.7c.8.4,1.6.7,2.4,1.2a12,12,0,0,1,2.1,1.7,9,9,0,0,1,2.7,4.7,5,5,0,0,0,.3,1.3,10.41,10.41,0,0,0,.5,1.2c.3.9.3,1.8.5,2.6a20.29,20.29,0,0,0,2,4.8,46.17,46.17,0,0,0,5.5,9h0a12.67,12.67,0,0,1,.5,4.3,20.54,20.54,0,0,1-.9,4.3l-1.4,4.1-1.4,4.1v-.1q-.3,3.9-.3,7.8c0,1.3.1,2.6.2,3.9a12.25,12.25,0,0,0,.2,1.9,2.92,2.92,0,0,0,.2.9l.3.9v.2a8.08,8.08,0,0,1-.1,1.5c-.1.5-.3.9-.4,1.4-.3.9-.6,1.8-1,2.7a27.77,27.77,0,0,0-2,5.2,53.28,53.28,0,0,0-.8,10.8Z"/><path class="c" d="M189.3,125.6a68.59,68.59,0,0,1-.9-9c0-1.5,0-3,.1-4.5a21.42,21.42,0,0,0-.1-4.4,5.87,5.87,0,0,0-.6-2,1.16,1.16,0,0,0-.7-.5,1.76,1.76,0,0,1-.6-.1,1.61,1.61,0,0,1-.7-.4,1.76,1.76,0,0,1-.4-.5,2.19,2.19,0,0,0-.3-.5,4.87,4.87,0,0,1-.4-1.1c-.2-.7-.4-1.5-.6-2.2a46.2,46.2,0,0,1-1.1-9.1h0l.7-4,.4-2,.4-1.9a12.86,12.86,0,0,0,.3-3.9,10.05,10.05,0,0,0-1.2-3.7v.1a41.08,41.08,0,0,1-3.8-4.5,51.44,51.44,0,0,1-3.2-4.9,25.28,25.28,0,0,1-2.6-5.2c-.3-.9-.4-2-.7-2.8l-.3-.6c-.1-.2-.2-.5-.3-.7-.2-.5-.2-1-.4-1.4a9,9,0,0,0-3.2-4.5,8.37,8.37,0,0,0-2.4-1.4,6.94,6.94,0,0,0-1.3-.5A5.73,5.73,0,0,1,164,49a26.49,26.49,0,0,1-5.4-2.5,13.26,13.26,0,0,1-4.4-4.1,15.4,15.4,0,0,1-1.4-5.8,52.21,52.21,0,0,0-.7-5.7,9.84,9.84,0,0,0-2.4-4.9,10.56,10.56,0,0,0-4.9-2.6,36.17,36.17,0,0,1-5.5-2,16.46,16.46,0,0,1-4.8-3.5,21.67,21.67,0,0,1-5.1-10.4h.1a22.39,22.39,0,0,0,5.5,10,12.69,12.69,0,0,0,4.7,3.2,32.2,32.2,0,0,0,5.5,1.8,11.65,11.65,0,0,1,5.3,2.7,10.66,10.66,0,0,1,2.7,5.4c.4,2,.5,3.9.7,5.8a23.58,23.58,0,0,0,.4,2.8,11.22,11.22,0,0,0,.8,2.6,11.23,11.23,0,0,0,4,3.8,34.37,34.37,0,0,0,5.1,2.5,7.37,7.37,0,0,0,1.4.4,5.78,5.78,0,0,1,1.4.5,10.68,10.68,0,0,1,2.5,1.6,8.34,8.34,0,0,1,3.3,4.9c.1.5.2,1,.3,1.4.1.2.1.4.2.6a4.35,4.35,0,0,1,.4.7c.4,1,.3,2,.7,2.9a22.55,22.55,0,0,0,2.5,5.2,42,42,0,0,0,7,9.3h0a13.41,13.41,0,0,1,1.4,3.8,14.1,14.1,0,0,1-.1,4.1l-.4,2-.3,2-.6,3.9v-.1a44.22,44.22,0,0,0,1.1,8.9,18,18,0,0,0,.6,2.2,4.18,4.18,0,0,0,.4,1c.1.2.1.3.2.5l.3.3c.2.2.3.2.9.3a1.88,1.88,0,0,1,1.1.8,5.1,5.1,0,0,1,.7,2.3,17.71,17.71,0,0,1,0,4.6c-.1,1.5-.2,3-.2,4.5-.1,2.9.1,5.9.3,8.9Z"/><path class="c" d="M186.6,124.8l-1.8-9.1c-.7-3-.8-6.2-2.4-8.7a5.39,5.39,0,0,0-1.4-1.6,1.61,1.61,0,0,0-.9-.3,4.91,4.91,0,0,0-1.1.1,1.9,1.9,0,0,1-1.4-.4,2.54,2.54,0,0,1-.8-1,21.16,21.16,0,0,1-1.1-2.1,31.39,31.39,0,0,1-2.3-9h0a25.39,25.39,0,0,1,0-3.9c0-1.3.2-2.6.2-3.8a9.16,9.16,0,0,0-.3-3.7,11.87,11.87,0,0,0-1.8-3.3h0a49.18,49.18,0,0,1-8-9.6,29.36,29.36,0,0,1-3-5.5c-.4-1-.4-2.1-.8-3-.1-.2-.3-.4-.4-.6a1.91,1.91,0,0,1-.3-.8,8.33,8.33,0,0,1-.4-1.5,8.81,8.81,0,0,0-3.7-4.6,11.48,11.48,0,0,0-2.7-1.4,8.87,8.87,0,0,0-1.4-.3l-1.6-.3a24.92,24.92,0,0,1-5.9-2.3,13.13,13.13,0,0,1-4.9-4.2,8.86,8.86,0,0,1-1.1-3.1c-.2-1-.4-2.1-.5-3.1a55.84,55.84,0,0,0-.9-6.1,9.67,9.67,0,0,0-2.9-5.1,11.35,11.35,0,0,0-5.5-2.3,46.3,46.3,0,0,1-6.1-1.7,15.54,15.54,0,0,1-5.3-3.4,21.79,21.79,0,0,1-6-10.9h.1a23.53,23.53,0,0,0,6.3,10.5,17.38,17.38,0,0,0,5.2,3.2,37.61,37.61,0,0,0,6,1.5,13.2,13.2,0,0,1,5.9,2.4,10.24,10.24,0,0,1,3.2,5.6c.5,2.1.7,4.2,1,6.2.1,1,.3,2,.5,3a8.49,8.49,0,0,0,1,2.8,11.42,11.42,0,0,0,4.5,3.9,23.49,23.49,0,0,0,5.7,2.3l1.5.3a7.49,7.49,0,0,1,1.6.4,12.47,12.47,0,0,1,2.8,1.5,9.76,9.76,0,0,1,3.8,5.1,8.33,8.33,0,0,0,.4,1.5c.1.2.2.5.3.7a4.35,4.35,0,0,1,.4.7c.4,1.1.4,2.1.8,3.1a24.16,24.16,0,0,0,2.9,5.5,42.94,42.94,0,0,0,8,9.5h0a10.53,10.53,0,0,1,2,3.4,13.06,13.06,0,0,1,.5,3.9c0,1.3-.1,2.6-.1,3.8s0,2.5.1,3.8h0a38,38,0,0,0,2.3,8.8,12.45,12.45,0,0,0,1,2c.4.6.8,1.1,1.4,1,.3,0,.8-.1,1.2-.1a2.57,2.57,0,0,1,1.2.5,5.81,5.81,0,0,1,1.6,1.9,12,12,0,0,1,1.5,4.5l.7,4.6,1.2,8.8Z"/><path class="c" d="M184.7,124.2l-1.9-6.4c-.6-2.1-1.2-4.3-1.9-6.4a13.8,13.8,0,0,0-3.4-5.4,3.66,3.66,0,0,0-2.7-1,7.44,7.44,0,0,1-1.7.3,2.93,2.93,0,0,1-1-.3,4.35,4.35,0,0,1-.7-.6,18.08,18.08,0,0,1-1.9-2.9,27.4,27.4,0,0,1-3-9.7c-.1-1.1-.2-2.2-.3-3.4s0-2.2-.1-3.3a8.36,8.36,0,0,0-.8-3.1,10,10,0,0,0-2-2.6h0a47.76,47.76,0,0,1-8.7-9.8,29.22,29.22,0,0,1-3.3-5.7,28,28,0,0,0-.9-3.1c-.1-.2-.3-.4-.5-.7a1.33,1.33,0,0,1-.3-.8,9.36,9.36,0,0,1-.4-1.6,9.2,9.2,0,0,0-4-4.7,10.76,10.76,0,0,0-2.9-1.3,7.72,7.72,0,0,0-1.5-.2,9.85,9.85,0,0,1-1.7-.2,27.69,27.69,0,0,1-6.3-2.2,13.28,13.28,0,0,1-5.2-4.2,12.66,12.66,0,0,1-1.3-3.2,19.09,19.09,0,0,1-.6-3.3,45,45,0,0,0-1.1-6.4,9.78,9.78,0,0,0-3.2-5.2,12.74,12.74,0,0,0-5.9-2.2,37.45,37.45,0,0,1-6.4-1.6,17,17,0,0,1-5.7-3.3A22.52,22.52,0,0,1,96.8,8.5h.1a22.9,22.9,0,0,0,6.9,10.8,16.14,16.14,0,0,0,5.6,3.1,44.2,44.2,0,0,0,6.3,1.4A13.26,13.26,0,0,1,122,26a10.21,10.21,0,0,1,3.6,5.7,51.94,51.94,0,0,1,1.1,6.5c.2,1.1.3,2.1.6,3.2a9.19,9.19,0,0,0,1.1,2.9,12.59,12.59,0,0,0,4.8,4,21.65,21.65,0,0,0,6,2.2,7.72,7.72,0,0,0,1.5.2,8.58,8.58,0,0,1,1.7.3,10.31,10.31,0,0,1,3,1.4,9.83,9.83,0,0,1,4.2,5.2c.2.6.2,1.1.4,1.6a4.88,4.88,0,0,0,.3.7c.1.2.3.4.5.7a21.37,21.37,0,0,1,.8,3.2,29.45,29.45,0,0,0,3.2,5.7,41.84,41.84,0,0,0,8.7,9.6h0a10.44,10.44,0,0,1,2.1,2.6,7.9,7.9,0,0,1,1,3.3c.1,1.1.1,2.2.2,3.3l.3,3.3a35.26,35.26,0,0,0,1.6,6.4c.4,1,.8,2,1.3,3a10.36,10.36,0,0,0,1.7,2.7c.4.4.7.7,1.1.7s.9-.2,1.6-.3a3.91,3.91,0,0,1,3.3,1.2,13.93,13.93,0,0,1,3.5,5.8c.7,2.1,1.2,4.3,1.8,6.5l1.7,6.6Z"/><path class="c" d="M183.8,124l-2.2-6.4a48,48,0,0,0-2.4-6.3,15.87,15.87,0,0,0-3.9-5.3,4.45,4.45,0,0,0-2.9-1,12.44,12.44,0,0,0-1.6.4,1.7,1.7,0,0,1-1,0,7.93,7.93,0,0,1-.9-.4,10.89,10.89,0,0,1-2.2-2.7,30.13,30.13,0,0,1-1.6-3.1,30.48,30.48,0,0,1-2-6.5c-.2-1.1-.4-2.3-.5-3.4s-.1-2.3-.3-3.4a7.08,7.08,0,0,0-1-3.1,12.74,12.74,0,0,0-2.2-2.5h0a47.17,47.17,0,0,1-9-9.9,26,26,0,0,1-3.4-5.8,24.48,24.48,0,0,0-.9-3.2c-.1-.2-.3-.4-.5-.7a1.33,1.33,0,0,1-.3-.8,12.44,12.44,0,0,1-.4-1.6,9.34,9.34,0,0,0-4.2-4.8,10.11,10.11,0,0,0-3-1.3,7.77,7.77,0,0,0-1.6-.2,8.81,8.81,0,0,1-1.7-.2,24.26,24.26,0,0,1-6.4-2.2,14,14,0,0,1-5.4-4.3,9.82,9.82,0,0,1-1.3-3.2,19.09,19.09,0,0,1-.6-3.3,46.42,46.42,0,0,0-1.1-6.5,9.37,9.37,0,0,0-3.4-5.2,15.26,15.26,0,0,0-6.1-2.1,52.25,52.25,0,0,1-6.6-1.5,17.22,17.22,0,0,1-5.9-3.3A21.83,21.83,0,0,1,90.4,8.8h.1a23.3,23.3,0,0,0,7.2,11,18,18,0,0,0,5.8,3.1,35.64,35.64,0,0,0,6.5,1.3c2.2.3,4.6.7,6.5,2.1a10.26,10.26,0,0,1,3.8,5.8,52.35,52.35,0,0,1,1.2,6.7,30.29,30.29,0,0,0,.6,3.2,12.47,12.47,0,0,0,1.1,2.9,13.25,13.25,0,0,0,5,4,26.91,26.91,0,0,0,6.2,2.2,8.75,8.75,0,0,0,1.6.2,4.67,4.67,0,0,1,1.7.3,10.91,10.91,0,0,1,3.1,1.4,10,10,0,0,1,4.3,5.2,12.44,12.44,0,0,1,.4,1.6,4.88,4.88,0,0,0,.3.7c.1.2.3.4.5.7.5,1.1.5,2.2.9,3.3a21.72,21.72,0,0,0,3.3,5.7,44.09,44.09,0,0,0,9.1,9.7h0a13.66,13.66,0,0,1,2.3,2.5,9.33,9.33,0,0,1,1.2,3.3c.2,1.1.2,2.3.4,3.4s.3,2.2.5,3.3a27.22,27.22,0,0,0,2,6.3l1.5,3a10,10,0,0,0,2,2.5,1.52,1.52,0,0,0,1.3.3c.5-.1,1-.3,1.7-.4a5,5,0,0,1,3.4,1.2,14.8,14.8,0,0,1,4,5.6,53.86,53.86,0,0,1,2.2,6.4l1.7,6.7Z"/><path class="c" d="M182.9,123.7c-1.2-3.2-2.4-6.4-3.7-9.6a24.23,24.23,0,0,0-2.4-4.5,13.29,13.29,0,0,0-3.4-3.7,6.25,6.25,0,0,0-2.2-1,2.44,2.44,0,0,0-1.2,0,7,7,0,0,0-1.2.3,3.18,3.18,0,0,1-1.4.2,2.51,2.51,0,0,1-1.4-.6,11.23,11.23,0,0,1-1.8-2,29.24,29.24,0,0,1-4.3-9.5,45.43,45.43,0,0,1-.9-5.1,11.07,11.07,0,0,0-1.3-4.8,17.1,17.1,0,0,0-3.6-3.5,31.46,31.46,0,0,1-3.7-3.6,54.94,54.94,0,0,1-6.3-8.1,13.31,13.31,0,0,1-2.1-4.7l-.3-1.2a2.66,2.66,0,0,0-.6-1,12.54,12.54,0,0,1-.9-2.5,8.82,8.82,0,0,0-2.9-4,12.15,12.15,0,0,0-4.4-2.2,5,5,0,0,0-1.2-.2h-1.3a23.81,23.81,0,0,1-2.6-.5,22.23,22.23,0,0,1-4.9-1.8,16,16,0,0,1-4.4-2.9,4.3,4.3,0,0,1-.9-1l-.4-.5-.3-.6a12.54,12.54,0,0,1-.9-2.5c-.9-3.4-.9-6.9-1.9-10.1a11.18,11.18,0,0,0-2.3-4.3,8.45,8.45,0,0,0-4.2-2.4,40.14,40.14,0,0,0-5-.9,31.38,31.38,0,0,1-5.1-1.2A18.64,18.64,0,0,1,88.9,18a22.63,22.63,0,0,1-4.7-9.1h.1a22.67,22.67,0,0,0,5,8.8A17.78,17.78,0,0,0,97.7,23a27.68,27.68,0,0,0,5,1c1.7.3,3.4.4,5.1.8a9.23,9.23,0,0,1,4.6,2.6,10.93,10.93,0,0,1,2.6,4.7c1,3.4,1.1,6.9,1.9,10.1a15.55,15.55,0,0,0,.8,2.3l.3.5.4.5a6.47,6.47,0,0,0,.8.9,16.19,16.19,0,0,0,4.1,2.7,38,38,0,0,0,4.7,1.8,18.43,18.43,0,0,0,2.5.5c.4.1.8,0,1.3.1a5.07,5.07,0,0,1,1.3.2,14,14,0,0,1,4.7,2.4,9.36,9.36,0,0,1,3,4.3,13.7,13.7,0,0,0,.7,2.4c.1.2.3.3.4.5l.3.6c.1.4.2.9.3,1.3a12.65,12.65,0,0,0,2,4.6,48.94,48.94,0,0,0,6.3,8.1c1.2,1.2,2.4,2.4,3.7,3.5s2.8,2,3.8,3.5a12.76,12.76,0,0,1,1.6,5,44.23,44.23,0,0,0,1,5,30.72,30.72,0,0,0,4.2,9.2,9.34,9.34,0,0,0,1.6,1.8,1.8,1.8,0,0,0,.9.4,2.34,2.34,0,0,0,1.1-.2,5,5,0,0,1,1.3-.3,3.33,3.33,0,0,1,1.4.1,8,8,0,0,1,2.5,1.1,13,13,0,0,1,3.5,3.9,28.22,28.22,0,0,1,2.3,4.6c.7,1.6,1.1,3.2,1.7,4.9l1.5,5.3Z"/></g><path class="a" d="M137.8,131.8s-1.7-11.1-2.9-18.6c0-.3-.1-.5-.1-.8,1.3-3.4-.7-7.4-.7-10.4v-.7a22.86,22.86,0,0,0,.5-10v-.8c.1-1.8.2-3.6.3-5.2v-.7c.1-3.6,2.1-6.6-.2-10.7a5.16,5.16,0,0,1-.2-1.1,17.32,17.32,0,0,1,.4-7.5,4.1,4.1,0,0,1-.1-1.1,14.79,14.79,0,0,1,1.7-7c.1-.2.1-.5.2-.7.4-1.6.8-3.1.8-3.1s.1-.4.2-1c.1-.3.1-.6.2-1-.9-3.5,1.1-6.5,4.6-8.6a3.11,3.11,0,0,0,.9-.7c2-2.2-.9-6.4,2.5-7.9l.8-.8c2.6-2.8,3.9-4.6,8.3-5.5a5.55,5.55,0,0,0,.8-.6c2.4-1.9,4.1-4.1,6.3-6.1a5,5,0,0,1,.8-.7c2.6-1.8,6.1-1.2,9-3.3a3.55,3.55,0,0,0,.9-.4c2.4-.9,4.6-1.7,7.4-1.2.3-.1.6-.3.9-.4,2-1.1,3.6-2.8,5.8-3.6l.9-.3a10.36,10.36,0,0,1,6.9.3l1-.3c1.9-.5,3.8-1.1,5.9-.5a1.85,1.85,0,0,0,.7-.2c1.1-.3,1.9-.5,1.9-.5h4.4s.8.2,1.9.5a6.37,6.37,0,0,0,.7.2,11.72,11.72,0,0,1,5.9.5c.3.1.6.2,1,.3a9.77,9.77,0,0,1,6.9-.3l.9.3c2.2.8,3.8,2.5,5.8,3.6a3.55,3.55,0,0,0,.9.4c2.7-.5,5,.3,7.4,1.2a3.55,3.55,0,0,1,.9.4c2.9,2,6.4,1.4,9,3.3a2.7,2.7,0,0,1,.8.7c2.3,2.1,4,4.3,6.3,6.1.3.2.5.4.8.6,4.5.9,5.7,2.7,8.3,5.5a6,6,0,0,0,.8.8c3.4,1.5.5,5.7,2.5,7.9a3.51,3.51,0,0,0,.9.7c3.5,2.1,5.5,5.1,4.6,8.6.1.4.1.7.2,1,.1.6.2,1,.2,1s.4,1.4.8,3.1c.1.2.1.5.2.7a13.46,13.46,0,0,1,1.7,7c0,.4-.1.7-.1,1.1a19,19,0,0,1,.4,7.5c-.1.4-.1.8-.2,1.1-2.3,4.1-.3,7.1-.2,10.7v.7c.1,1.6.2,3.4.3,5.2v.8a26.52,26.52,0,0,0,.5,10v.7c0,3.1-2,7.1-.7,10.4,0,.2-.1.5-.1.8-1.2,7.6-2.9,18.6-2.9,18.6l-.1,3.5-4,5.3-2.5-21s-2.8,2-2.8,1a13.58,13.58,0,0,1,.1-1.5c0-.3.1-.6.1-.9,1.5-3.1.5-7.1,1.3-10.2,0-.3.1-.7.1-1,.2-2.3.3-4.6.4-7,0-.3.1-.5.1-.8a59.78,59.78,0,0,0,.9-8.7,2.2,2.2,0,0,1,.1-.8c.6-6,1-10.5,1-10.5l-6.3.3s-1.6-2.1-3-3.9a2.09,2.09,0,0,1-.4-.6c-.8-2.5-2.2-3-3.9-3a3.4,3.4,0,0,0-1,.1C251,74,248,72,245.1,70a2.77,2.77,0,0,0-.9.1c-2.4.2-4.8.4-7.1-1.8-.3-.1-.7-.1-1.2-.2-1.4-.1-3.2-.2-4.7-.3h-.7a66.64,66.64,0,0,0-6.7.8c-.3.1-.7.2-1,.3a34.39,34.39,0,0,1-7.8,3.5,3,3,0,0,1-1,.2c-2.5.2-5.2.6-8,.6h-1.2c-2.7,1.3-4.4.2-6.7-1a9.29,9.29,0,0,0-1-.5c-2.6-2.2-5.9-2.6-9-3.2-.3-.1-.6-.1-.9-.2-3-.2-5.7-.3-8.2-.3h-1.1c-3.2-.1-6.6,2-9.6,3l-.9.3a7.26,7.26,0,0,1-4.2,1.7c-.4,0-.7.1-1.1.1-1.2-.1-2.2-.1-3.2-.1h-1c-2.8,0-4.6,1.4-6.2,3.1l-.7.7c-1,4.2-5,4.2-8,2.2a7.77,7.77,0,0,1-.3,2.4c0,.3.1.6.1.9s.1.6.1.9.1.7.1,1c0,5.8,0,12.8,1.9,18.8,0,.3.1.5.1.8.1,5.2.1,11.2,1.6,16.7,0,.3-.2.3-.4.3a2.26,2.26,0,0,1-.9-.4c-.1-.4-1.1-.4-1.5-.2,0,.2-.1.5-.1.8-.6,4.9-2.3,19.4-2.3,19.4l-4-5.3Z"/><path d="M271.2,147.3c.3-.7.4-1.2.7-1.8a16.18,16.18,0,0,1,1-1.8,13.09,13.09,0,0,1,2.7-3.1,9.07,9.07,0,0,1,3.6-2,6.39,6.39,0,0,1,4.1,0l-.2.1a5.48,5.48,0,0,0-1.1-4.1,2.62,2.62,0,0,0-1.8-.9,3.39,3.39,0,0,0-1.9.5,12.31,12.31,0,0,0-3.4,2.6c-1.1,1-2.1,2.1-3.1,3.2l.1-.3-.3,3.6C271.4,144.5,271.3,145.9,271.2,147.3Zm0,.1c0-1.2-.1-2.4-.2-3.7s-.1-2.7-.1-4v-.2l.1-.1a32.83,32.83,0,0,1,3.1-3.4,15.29,15.29,0,0,1,3.8-2.7,3.85,3.85,0,0,1,2.4-.4,3.9,3.9,0,0,1,2,1.3,6.28,6.28,0,0,1,1,4.4v.2l-.2-.1a6.15,6.15,0,0,0-1.9-.2,9.47,9.47,0,0,0-1.8.5,13.61,13.61,0,0,0-3.2,2.1,17.89,17.89,0,0,0-2.7,2.8,9.06,9.06,0,0,0-1.1,1.6,7,7,0,0,0-.6.9A6.42,6.42,0,0,0,271.2,147.4Z"/><path d="M283.3,138.7c-.3.8-.6,1.5-.9,2.3a11.2,11.2,0,0,0-.6,2.3v1.2c0,.4-.1.9-.1,1.3a21.66,21.66,0,0,1-.4,2.5,81,81,0,0,1-2.8,9.6,45.24,45.24,0,0,1-1.8,4.7l-.2.6c0,.1,0,.2-.1.2l-.1.3-.2,1.2-.3,2.5-.3,2.5c0,.4-.1.8-.1,1.2v.6a1.88,1.88,0,0,1-.2.8,5.36,5.36,0,0,1-2,1.7,16.27,16.27,0,0,1-2.3,1.1v-.1a14.29,14.29,0,0,0,2-1.4,6.37,6.37,0,0,0,1.6-1.7.6.6,0,0,0,.1-.4v-1.9a21.05,21.05,0,0,1,.2-2.5c.1-.8.2-1.7.3-2.5l.2-1.3.1-.3c0-.1.1-.3.1-.4l.3-.6,2.1-4.5a18.83,18.83,0,0,0,1.7-4.7c.3-1.6.5-3.3.8-4.9l.4-2.4a4.87,4.87,0,0,0,.1-1.2,6.64,6.64,0,0,1,.1-1.3,9.69,9.69,0,0,1,2.3-4.5Z"/><path d="M141.3,147.4a2.1,2.1,0,0,0-.6-.8l-.6-.9c-.4-.6-.8-1.1-1.1-1.6a17.89,17.89,0,0,0-2.7-2.8,16,16,0,0,0-3.2-2.1,6.07,6.07,0,0,0-1.8-.5,4.13,4.13,0,0,0-1.9.2l-.2.1v-.2a6.85,6.85,0,0,1,1-4.4,3.89,3.89,0,0,1,2-1.3,3.85,3.85,0,0,1,2.4.4,21.71,21.71,0,0,1,6.9,6.1l.1.1v.2c0,1.3,0,2.7-.1,4C141.4,145,141.3,146.2,141.3,147.4Zm0-.1c-.1-1.4-.2-2.7-.3-4s-.2-2.4-.3-3.6l.1.3c-1-1.1-2-2.2-3.1-3.2a16.19,16.19,0,0,0-3.4-2.6,2.82,2.82,0,0,0-3.7.4,5.26,5.26,0,0,0-1.1,4.1l-.2-.1a6.39,6.39,0,0,1,4.1,0,10.68,10.68,0,0,1,3.6,2,20,20,0,0,1,2.7,3.1,16.18,16.18,0,0,1,1,1.8A18.93,18.93,0,0,0,141.3,147.3Z"/><path d="M129.3,138.6a12.27,12.27,0,0,1,2.2,4.6,5.28,5.28,0,0,0,.1,1.3c0,.4.1.8.1,1.2l.4,2.4a41.66,41.66,0,0,0,.8,4.9,20.38,20.38,0,0,0,1.7,4.7l2.1,4.5.3.6c0,.1.1.2.1.4l.1.3.2,1.3c.1.8.2,1.7.3,2.5a21.05,21.05,0,0,1,.2,2.5v1.9a.6.6,0,0,0,.1.4,6.37,6.37,0,0,0,1.6,1.7,14.29,14.29,0,0,0,2,1.4v.1a9.73,9.73,0,0,1-2.3-1.1,6.48,6.48,0,0,1-2-1.7,1.88,1.88,0,0,1-.2-.8v-.6c0-.4-.1-.8-.1-1.2l-.3-2.5-.3-2.5-.2-1.2-.1-.3c0-.1,0-.2-.1-.2l-.2-.6c-.6-1.5-1.2-3.1-1.8-4.7-1.2-3.1-1.9-6.4-2.8-9.6a18.66,18.66,0,0,1-.4-2.5c0-.4-.1-.8-.1-1.3v-1.2a9.77,9.77,0,0,0-.6-2.3c-.2-.8-.5-1.5-.8-2.4Z"/></svg>