<svg xmlns="http://www.w3.org/2000/svg" xmlns:xlink="http://www.w3.org/1999/xlink" viewBox="0 0 400 400"><defs><style>.a,.b{stroke:blue;stroke-miterlimit:10;}.a{fill:url(#a);}.b{fill:#333;}</style><linearGradient id="a" x1="201.35" y1="8.33" x2="201.35" y2="397.76" gradientUnits="userSpaceOnUse"><stop offset="0" stop-color="aqua"/><stop offset="1" stop-color="blue"/></linearGradient></defs><title>Prancheta 1 cópia</title><path class="a" d="M372.4,293.9a40.65,40.65,0,0,0-9.9-14.7,53.15,53.15,0,0,0-7.1-5.4,40.29,40.29,0,0,0-8.1-3.9l-2.5-.6h-.2a27.43,27.43,0,0,1-9.9-.1,20.08,20.08,0,0,1-4.7-1.6c-.8-.4-1.5-.8-2.2-1.2s-1.4-.9-2.1-1.4h-.1a70.39,70.39,0,0,0-9.1-3.3,44.8,44.8,0,0,0-9.6-1.6h.2c-1-.3-2-.8-3-1.1s-2.1-.6-3.2-.8l-4.7-.4c-3.3-.7-6.5-1.8-9.7-2.8a58.21,58.21,0,0,0-10-2.4h.1l-1.8-.9c-.6-.3-1.2-.7-1.8-1a32.57,32.57,0,0,1-3.4-2.2,11.27,11.27,0,0,0-1.8-1.2c-.6-.3-1.3-.6-1.9-.9l-.46-.19-1.85-3.05.54.91c-3.46-5.71-6.83-11.06-6.83-11.06l-1.47-2.58h0l.79,1.29-.77-1.34a132.55,132.55,0,0,0,5.65-13,157.18,157.18,0,0,0,8.9-38.2c.16-1.31.28-2.6.39-3.89,1.31-.66,4.39-2.35,4.31-3.61a49.26,49.26,0,0,1,.9-8.5c.3-.7,3.2-6.8,3.8-9.6s1.8-8,1.6-9.8,1.8-5.1,1.8-5.1.5-4.4-2.6-5.3c-1.47-.46-5.33,2.36-5.33,2.36l-.37-.46.1-3.5s1.7-11,2.9-18.6c0-.3.1-.6.1-.8-1.3-3.3.7-7.3.7-10.4v-.7a26.52,26.52,0,0,1-.5-10v-.8c-.1-1.8-.2-3.6-.3-5.2v-.7c-.1-3.6-2.1-6.6.2-10.7.1-.3.1-.7.2-1.1a19,19,0,0,0-.4-7.5c0-.4.1-.7.1-1.1a13.46,13.46,0,0,0-1.7-7c-.1-.2-.1-.5-.2-.7-.4-1.7-.8-3.1-.8-3.1s-.1-.4-.2-1c-.1-.3-.1-.6-.2-1,.9-3.5-1.1-6.5-4.6-8.6a3.52,3.52,0,0,1-.9-.7c-2-2.2.9-6.4-2.5-7.9a6,6,0,0,1-.8-.8c-2.6-2.8-3.8-4.6-8.3-5.5-.3-.2-.5-.4-.8-.6-2.3-1.8-4-4-6.3-6.1a2.7,2.7,0,0,0-.8-.7c-2.6-1.9-6.1-1.3-9-3.3a3.55,3.55,0,0,0-.9-.4c-2.4-.9-4.7-1.7-7.4-1.2a3.55,3.55,0,0,1-.9-.4c-2-1.1-3.6-2.8-5.8-3.6l-.9-.3a9.77,9.77,0,0,0-6.9.3c-.4-.1-.7-.2-1-.3a11.72,11.72,0,0,0-5.9-.5,6.38,6.38,0,0,1-.7-.2c-1.1-.3-1.9-.5-1.9-.5h-4.4s-.8.2-1.9.5a1.85,1.85,0,0,1-.7.2c-2.1-.6-4,0-5.9.5-.3.1-.7.2-1,.3a10.36,10.36,0,0,0-6.9-.3l-.9.3c-2.2.8-3.8,2.5-5.8,3.6-.3.1-.6.3-.9.4-2.8-.5-5,.3-7.4,1.2a3.55,3.55,0,0,1-.9.4c-2.9,2.1-6.4,1.5-9,3.3a5,5,0,0,0-.8.7c-2.2,2-3.9,4.2-6.3,6.1a5.54,5.54,0,0,1-.8.6c-4.4.9-5.7,2.7-8.3,5.5l-.8.8c-3.4,1.5-.5,5.7-2.5,7.9a3.11,3.11,0,0,1-.9.7c-3.5,2.1-5.5,5.1-4.6,8.6-.1.4-.1.7-.2,1-.1.6-.2,1-.2,1s-.4,1.5-.8,3.1c-.1.2-.1.5-.2.7a14.79,14.79,0,0,0-1.7,7,4.1,4.1,0,0,0,.1,1.1,17.32,17.32,0,0,0-.4,7.5,5.16,5.16,0,0,0,.2,1.1c2.3,4.1.3,7.1.2,10.7v.7c-.1,1.6-.2,3.4-.3,5.2v.8a22.86,22.86,0,0,1-.5,10v.7c0,3,2,7,.7,10.4,0,.3.1.5.1.8,1.2,7.5,2.9,18.6,2.9,18.6l-.4,3.3-.29.57s-3.78-2.72-5.21-2.27c-3.1.9-2.6,5.3-2.6,5.3s2,3.3,1.8,5.1,1,7,1.6,9.8,3.5,8.9,3.8,9.6a49.26,49.26,0,0,1,.9,8.5c-.1,1.6,4.9,3.9,4.9,3.9s.58,2.19.9,3.9a228.41,228.41,0,0,0,10.6,37.8,131.6,131.6,0,0,0,5.58,12.87l-1,2.83s-3.86,6.13-7.56,12.26l-5.34,1.24c-3.1.8-6.2,1.5-9.3,2.2-3.3,1-6.4,2.1-9.6,3.4s-6.3,2.5-9.5,3.6c-1.2.7-2.5,1.3-3.7,2.1s-2.4,1.5-3.6,2.3a6.7,6.7,0,0,1-1.8,1.1,3.76,3.76,0,0,1-2.1-.1c-.7-.2-1.3-.5-2-.7l-2.1-.6-2.9.3c-.4.1-.9.1-1.4.2s-.9.3-1.4.4l-2.7.9a27.59,27.59,0,0,1-2.7.8,17.72,17.72,0,0,1-3.1,1.5,7.82,7.82,0,0,1-3.4.5c-1.1-.1-2.2-.4-3.4-.6s-2.3-.4-3.5-.5c-1.5.8-3,1.6-4.5,2.3a30.61,30.61,0,0,1-4.8,1.7,44.24,44.24,0,0,1-5,1c-.8.1-1.7.1-2.5.2a1.7,1.7,0,0,0-.7.1l-.6.3-1.1.6-4.5,2.3a21.22,21.22,0,0,0-4.3,2.8,61.35,61.35,0,0,0-7.5,6.9A54.3,54.3,0,0,0,31,298.7a57,57,0,0,0-2.7,9.8,67.66,67.66,0,0,0-.8,10.1l-.1,81.3v.2h.2l347.3.2h.4V311.4A47.67,47.67,0,0,0,372.4,293.9Z"/><path class="b" d="M258.7,235.2l3.1,5,1.8,3-1.7-2.85-3.1-5c-.5-.8-1-1.7-1.5-2.5l-.68-1.1.58,1C257.7,233.5,258.2,234.4,258.7,235.2Z"/></svg>