<?xml version="1.0" encoding="utf-8"?>
<!-- Generator: Adobe Illustrator 21.0.0, SVG Export Plug-In . SVG Version: 6.00 Build 0)  -->
<svg version="1.1" id="Camada_1" xmlns="http://www.w3.org/2000/svg" xmlns:xlink="http://www.w3.org/1999/xlink" x="0px" y="0px"
	 viewBox="0 0 400 400" style="enable-background:new 0 0 400 400;" xml:space="preserve">
<style type="text/css">
	.st0{display:none;}
	.st1{display:inline;fill:none;stroke:#1D1D1B;stroke-linecap:round;stroke-miterlimit:10;}
	.st2{display:inline;fill:none;stroke:#000000;stroke-miterlimit:10;}
	.st3{display:none;opacity:0.23;enable-background:new    ;}
	.st4{display:inline;}
	.st5{clip-path:url(#SVGID_2_);}
	.st6{display:none;fill:#D4463C;}
	.st7{display:inline;fill:#CCCCCC;}
	.st8{fill:#CCCCCC;}
	.st9{fill:#FFFFFF;}
	.st10{fill:#333333;}
	.st11{fill:#686F7E;}
	.st12{fill:none;stroke:#CCCCCC;stroke-linecap:round;stroke-miterlimit:10;}
	.st13{fill:#B3B3B3;}
	.st14{opacity:0.75;}
	.st15{fill:none;stroke:#000000;stroke-miterlimit:10;}
	.st16{clip-path:url(#SVGID_4_);}
	.st17{fill:#1A1A1A;}
	.st18{clip-path:url(#SVGID_6_);}
	.st19{fill:#1D1D1B;}
	.st20{opacity:0.28;}
	.st21{fill:none;}
	.st22{clip-path:url(#SVGID_9_);}
	.st23{fill:none;stroke:#FFFFFF;stroke-miterlimit:10;}
	.st24{fill:none;stroke:#000000;stroke-width:2;stroke-linejoin:round;stroke-miterlimit:10;}
	.st25{fill:url(#SVGID_10_);stroke:#0000FF;stroke-miterlimit:10;}
	.st26{fill:#333333;stroke:#0000FF;stroke-miterlimit:10;}
	.st27{display:inline;fill:url(#SVGID_11_);stroke:url(#SVGID_12_);stroke-miterlimit:10;}
</style>
<g>
	<linearGradient id="SVGID_2_" gradientUnits="userSpaceOnUse" x1="201.3538" y1="8.3333" x2="201.3538" y2="397.7631">
		<stop  offset="0" style="stop-color:#00FFFF"/>
		<stop  offset="1" style="stop-color:#0000FF"/>
	</linearGradient>
	<path style="fill:url(#SVGID_2_);stroke:#0000FF;stroke-miterlimit:10;" d="M372.4,293.9c-2.1-5.5-5.6-10.6-9.9-14.7
		c-2.2-2-4.6-3.8-7.1-5.4c-2.6-1.6-5.2-2.9-8.1-3.9l-2.5-0.6h-0.1h-0.1c-3.3,0.5-6.7,0.6-9.9-0.1c-1.6-0.3-3.2-0.9-4.7-1.6
		c-0.8-0.4-1.5-0.8-2.2-1.2c-0.7-0.5-1.4-0.9-2.1-1.4h-0.1c-2.9-1.3-6-2.4-9.1-3.3c-3.1-0.9-6.4-1.4-9.6-1.6h0.2c-1-0.3-2-0.8-3-1.1
		c-1.1-0.3-2.1-0.6-3.2-0.8l-4.7-0.4c-3.3-0.7-6.5-1.8-9.7-2.8c-3.3-1-6.6-2-10-2.4h0.1l-1.8-0.9c-0.6-0.3-1.2-0.7-1.8-1
		c-1.1-0.7-2.3-1.3-3.4-2.2c-0.5-0.4-1.2-0.9-1.8-1.2c-0.6-0.3-1.3-0.6-1.9-0.9c-0.2-0.1-0.3-0.1-0.5-0.2c-0.6-1-1.2-2-1.8-3.1
		c0.2,0.3,0.4,0.6,0.5,0.9c-3.5-5.7-6.8-11.1-6.8-11.1l-1.5-2.6c0,0,0,0,0,0l0.8,1.3l-0.8-1.3c2.1-4.2,4-8.6,5.6-13
		c4.6-12.3,7.5-25.2,8.9-38.2c0.2-1.3,0.3-2.6,0.4-3.9c1.3-0.7,4.4-2.4,4.3-3.6c-0.1-1.6,0.6-7.8,0.9-8.5s3.2-6.8,3.8-9.6
		c0.6-2.8,1.8-8,1.6-9.8s1.8-5.1,1.8-5.1s0.5-4.4-2.6-5.3c-1.5-0.5-5.3,2.4-5.3,2.4l-0.4-0.5l0.1-3.5c0,0,1.7-11,2.9-18.6
		c0-0.3,0.1-0.6,0.1-0.8c-1.3-3.3,0.7-7.3,0.7-10.4c0-0.2,0-0.5,0-0.7c-0.9-3.3-0.9-7.3-0.5-10c0-0.3,0-0.5,0-0.8
		c-0.1-1.8-0.2-3.6-0.3-5.2c0-0.3,0-0.5,0-0.7c-0.1-3.6-2.1-6.6,0.2-10.7c0.1-0.3,0.1-0.7,0.2-1.1c0.4-2.6,0.2-4.9-0.4-7.5
		c0-0.4,0.1-0.7,0.1-1.1c0.2-2.5-0.7-5.1-1.7-7c-0.1-0.2-0.1-0.5-0.2-0.7c-0.4-1.7-0.8-3.1-0.8-3.1s-0.1-0.4-0.2-1
		c-0.1-0.3-0.1-0.6-0.2-1c0.9-3.5-1.1-6.5-4.6-8.6c-0.4-0.2-0.7-0.5-0.9-0.7c-2-2.2,0.9-6.4-2.5-7.9c-0.3-0.3-0.6-0.5-0.8-0.8
		c-2.6-2.8-3.8-4.6-8.3-5.5c-0.3-0.2-0.5-0.4-0.8-0.6c-2.3-1.8-4-4-6.3-6.1c-0.2-0.3-0.5-0.5-0.8-0.7c-2.6-1.9-6.1-1.3-9-3.3
		c-0.3-0.2-0.6-0.3-0.9-0.4c-2.4-0.9-4.7-1.7-7.4-1.2c-0.3-0.1-0.6-0.2-0.9-0.4c-2-1.1-3.6-2.8-5.8-3.6c-0.3-0.1-0.6-0.2-0.9-0.3
		c-2.1-0.7-4.2-0.7-6.9,0.3c-0.4-0.1-0.7-0.2-1-0.3c-1.9-0.5-3.8-1-5.9-0.5c-0.3-0.1-0.5-0.1-0.7-0.2c-1.1-0.3-1.9-0.5-1.9-0.5h-4.4
		c0,0-0.8,0.2-1.9,0.5c-0.2,0.1-0.5,0.2-0.7,0.2c-2.1-0.6-4,0-5.9,0.5c-0.3,0.1-0.7,0.2-1,0.3c-2.7-0.9-4.8-1-6.9-0.3
		c-0.3,0.1-0.6,0.2-0.9,0.3c-2.2,0.8-3.8,2.5-5.8,3.6c-0.3,0.1-0.6,0.3-0.9,0.4c-2.8-0.5-5,0.3-7.4,1.2c-0.3,0.2-0.6,0.3-0.9,0.4
		c-2.9,2.1-6.4,1.5-9,3.3c-0.3,0.2-0.5,0.4-0.8,0.7c-2.2,2-3.9,4.2-6.3,6.1c-0.2,0.2-0.5,0.4-0.8,0.6c-4.4,0.9-5.7,2.7-8.3,5.5
		c-0.3,0.3-0.5,0.5-0.8,0.8c-3.4,1.5-0.5,5.7-2.5,7.9c-0.3,0.3-0.5,0.5-0.9,0.7c-3.5,2.1-5.5,5.1-4.6,8.6c-0.1,0.4-0.1,0.7-0.2,1
		c-0.1,0.6-0.2,1-0.2,1s-0.4,1.5-0.8,3.1c-0.1,0.2-0.1,0.5-0.2,0.7c-1,2-1.8,4.5-1.7,7c0,0.4,0,0.7,0.1,1.1
		c-0.7,2.6-0.8,4.9-0.4,7.5c0,0.3,0.1,0.7,0.2,1.1c2.3,4.1,0.3,7.1,0.2,10.7c0,0.2,0,0.5,0,0.7c-0.1,1.6-0.2,3.4-0.3,5.2
		c0,0.3,0,0.5,0,0.8c0.5,2.8,0.5,6.8-0.5,10c0,0.3,0,0.5,0,0.7c0,3,2,7,0.7,10.4c0,0.3,0.1,0.5,0.1,0.8c1.2,7.5,2.9,18.6,2.9,18.6
		l-0.4,3.3l-0.3,0.6c0,0-3.8-2.7-5.2-2.3c-3.1,0.9-2.6,5.3-2.6,5.3s2,3.3,1.8,5.1c-0.2,1.8,1,7,1.6,9.8c0.6,2.8,3.5,8.9,3.8,9.6
		c0.3,0.7,1,6.9,0.9,8.5c-0.1,1.6,4.9,3.9,4.9,3.9s0.6,2.2,0.9,3.9c2.5,12.8,5.9,25.5,10.6,37.8c1.6,4.4,3.5,8.7,5.6,12.9l-1,2.8
		c0,0-3.9,6.1-7.6,12.3l-5.3,1.2c-3.1,0.8-6.2,1.5-9.3,2.2c-3.3,1-6.4,2.1-9.6,3.4c-3.1,1.2-6.3,2.5-9.5,3.6
		c-1.2,0.7-2.5,1.3-3.7,2.1c-1.2,0.7-2.4,1.5-3.6,2.3c-0.6,0.4-1.1,0.9-1.8,1.1c-0.7,0.2-1.4,0.1-2.1-0.1s-1.3-0.5-2-0.7l-2.1-0.6
		l-2.9,0.3c-0.4,0.1-0.9,0.1-1.4,0.2c-0.5,0.1-0.9,0.3-1.4,0.4l-2.7,0.9c-0.9,0.3-1.8,0.6-2.7,0.8c-1,0.6-2,1.1-3.1,1.5
		c-1.1,0.4-2.2,0.6-3.4,0.5c-1.1-0.1-2.2-0.4-3.4-0.6s-2.3-0.4-3.5-0.5c-1.5,0.8-3,1.6-4.5,2.3c-1.6,0.7-3.2,1.3-4.8,1.7
		c-1.7,0.4-3.3,0.8-5,1c-0.8,0.1-1.7,0.1-2.5,0.2c-0.2,0-0.5,0-0.7,0.1l-0.6,0.3l-1.1,0.6l-4.5,2.3c-1.6,0.7-3,1.8-4.3,2.8
		c-2.7,2.1-5.2,4.4-7.5,6.9c-4.6,5.1-8.4,10.8-10.8,17.2c-1.2,3.2-2.1,6.5-2.7,9.8c-0.6,3.3-0.7,6.7-0.8,10.1l-0.1,81.3v0.2h0.2
		l347.3,0.2h0.4v-0.4v-70.8v-17.7C375.4,305.5,374.5,299.5,372.4,293.9z M269.6,79.2L269.6,79.2c0.1,0,0.1,0.3,0,1L269.6,79.2
		L269.6,79.2z"/>
	<path class="st26" d="M258.7,235.2l3.1,5c0.6,1,1.2,2,1.8,3c-0.6-0.9-1.1-1.9-1.7-2.9l-3.1-5c-0.5-0.8-1-1.7-1.5-2.5l-0.7-1.1
		l0.6,1C257.7,233.5,258.2,234.4,258.7,235.2z"/>
</g>
</svg>
